<svg width="44" height="44" viewBox="0 0 44 44" fill="none" xmlns="http://www.w3.org/2000/svg">
<path d="M34.3017 17.3983C34.1183 17.3983 33.935 17.3617 33.7517 17.2883C33.055 16.9767 32.7433 16.17 33.0367 15.4733C33.385 14.685 33.1833 13.53 32.5417 12.5767C31.9 11.605 30.9283 10.945 30.0483 11C29.2417 11 28.6733 10.395 28.655 9.64332C28.655 8.87332 29.26 8.26832 30.0117 8.24999C31.9 8.21332 33.6783 9.29499 34.8333 11.0367C36.0067 12.7967 36.2817 14.905 35.5667 16.555C35.3467 17.0867 34.8333 17.3983 34.3017 17.3983Z" fill="#797C80"/>
<path d="M40.0033 19.2134C39.875 19.2134 39.765 19.195 39.6367 19.1584C38.9033 18.9567 38.4817 18.205 38.6833 17.4717C39.38 14.9784 38.7933 12.0084 37.125 9.51503C35.4567 7.02169 32.9267 5.35336 30.3417 5.04169C29.59 4.95003 29.0583 4.27169 29.15 3.52003C29.2417 2.76836 29.9383 2.21836 30.6717 2.32836C34.0267 2.73169 37.29 4.85836 39.3983 8.01169C41.5067 11.165 42.2217 14.9784 41.3233 18.2417C41.1583 18.81 40.6083 19.2134 40.0033 19.2134Z" fill="#797C80"/>
<path d="M31.3867 21.5966C31.3867 22.1466 30.9283 22.605 30.3783 22.605H6.28833C5.73833 22.605 5.28 22.1466 5.28 21.5966C5.28 21.0466 5.73833 20.5883 6.28833 20.5883H7.645L8.15833 18.1683C8.635 15.8216 9.64333 13.6766 13.64 13.6766H23.045C27.0417 13.6766 28.0317 15.84 28.5267 18.1683L29.04 20.5883H30.3967C30.9283 20.5883 31.3867 21.0466 31.3867 21.5966Z" fill="#797C80"/>
<path d="M31.955 29.1683C31.7533 26.9683 31.1667 24.6033 26.8767 24.6033H9.78999C5.49999 24.6033 4.91333 26.9683 4.71166 29.1683L3.95999 37.3266C3.86833 38.3349 4.19833 39.3616 4.89499 40.1316C5.60999 40.9016 6.59999 41.3416 7.68166 41.3416H10.1933C12.3567 41.3416 12.7783 40.0949 13.0533 39.2883L13.3283 38.4816C13.64 37.5649 13.7133 37.3266 14.9233 37.3266H21.78C22.99 37.3266 23.0267 37.4549 23.375 38.4816L23.65 39.2883C23.925 40.1133 24.3283 41.3416 26.51 41.3416H29.0217C30.085 41.3416 31.0933 40.9016 31.8083 40.1316C32.505 39.3616 32.835 38.3533 32.7433 37.3266L31.955 29.1683ZM14.3183 31.9549H10.3033C9.75333 31.9549 9.29499 31.4966 9.29499 30.9466C9.29499 30.3966 9.75333 29.9383 10.3033 29.9383H14.3183C14.8683 29.9383 15.3267 30.3966 15.3267 30.9466C15.3267 31.4966 14.8683 31.9549 14.3183 31.9549ZM26.3633 31.9549H22.3483C21.7983 31.9549 21.34 31.4966 21.34 30.9466C21.34 30.3966 21.7983 29.9383 22.3483 29.9383H26.3633C26.9133 29.9383 27.3717 30.3966 27.3717 30.9466C27.3717 31.4966 26.9133 31.9549 26.3633 31.9549Z" fill="#797C80"/>
</svg>
