<svg width="44" height="44" viewBox="0 0 44 44" fill="none" xmlns="http://www.w3.org/2000/svg">
<path d="M13.2733 3.66669H9.79C5.775 3.66669 3.66667 5.77502 3.66667 9.77169V13.255C3.66667 17.2517 5.775 19.36 9.77167 19.36H13.255C17.2517 19.36 19.36 17.2517 19.36 13.255V9.77169C19.3783 5.77502 17.27 3.66669 13.2733 3.66669Z" fill="#797C80"/>
<path d="M34.2283 3.66669H30.745C26.7483 3.66669 24.64 5.77502 24.64 9.77169V13.255C24.64 17.2517 26.7483 19.36 30.745 19.36H34.2283C38.225 19.36 40.3333 17.2517 40.3333 13.255V9.77169C40.3333 5.77502 38.225 3.66669 34.2283 3.66669Z" fill="#797C80"/>
<path d="M34.2283 24.6216H30.745C26.7483 24.6216 24.64 26.73 24.64 30.7266V34.21C24.64 38.2066 26.7483 40.315 30.745 40.315H34.2283C38.225 40.315 40.3333 38.2066 40.3333 34.21V30.7266C40.3333 26.73 38.225 24.6216 34.2283 24.6216Z" fill="#797C80"/>
<path d="M13.2733 24.6216H9.79C5.775 24.6216 3.66667 26.73 3.66667 30.7266V34.21C3.66667 38.225 5.775 40.3333 9.77167 40.3333H13.255C17.2517 40.3333 19.36 38.225 19.36 34.2283V30.745C19.3783 26.73 17.27 24.6216 13.2733 24.6216Z" fill="#797C80"/>
</svg>
