<svg width="22" height="23" viewBox="0 0 22 23" fill="none" xmlns="http://www.w3.org/2000/svg">
<path d="M11.0193 7.82178C9.0047 7.82178 7.36065 9.46586 7.36065 11.4805C7.36065 13.4951 9.0047 15.1392 11.0193 15.1392C13.0339 15.1392 14.6779 13.4951 14.6779 11.4805C14.6779 9.46586 13.0339 7.82178 11.0193 7.82178ZM21.9925 11.4805C21.9925 9.9654 22.0062 8.46404 21.9211 6.9517C21.836 5.19508 21.4353 3.63608 20.1508 2.35156C18.8635 1.06428 17.3073 0.666298 15.5507 0.581212C14.0357 0.496126 12.5343 0.50985 11.022 0.50985C9.50697 0.50985 8.00564 0.496126 6.49333 0.581212C4.73674 0.666298 3.17777 1.06703 1.89327 2.35156C0.60602 3.63883 0.208044 5.19508 0.122959 6.9517C0.0378743 8.46679 0.0515976 9.96815 0.0515976 11.4805C0.0515976 12.9928 0.0378743 14.4969 0.122959 16.0093C0.208044 17.7659 0.608765 19.3249 1.89327 20.6094C3.18052 21.8967 4.73674 22.2947 6.49333 22.3798C8.00839 22.4648 9.50972 22.4511 11.022 22.4511C12.5371 22.4511 14.0384 22.4648 15.5507 22.3798C17.3073 22.2947 18.8663 21.8939 20.1508 20.6094C21.438 19.3221 21.836 17.7659 21.9211 16.0093C22.0089 14.4969 21.9925 12.9956 21.9925 11.4805ZM11.0193 17.1099C7.90409 17.1099 5.38997 14.5957 5.38997 11.4805C5.38997 8.36523 7.90409 5.85107 11.0193 5.85107C14.1345 5.85107 16.6486 8.36523 16.6486 11.4805C16.6486 14.5957 14.1345 17.1099 11.0193 17.1099ZM16.8792 6.93523C16.1518 6.93523 15.5645 6.34786 15.5645 5.62051C15.5645 4.89316 16.1518 4.30579 16.8792 4.30579C17.6065 4.30579 18.1938 4.89316 18.1938 5.62051C18.1941 5.79323 18.1602 5.96428 18.0942 6.12389C18.0282 6.2835 17.9314 6.42852 17.8093 6.55064C17.6871 6.67277 17.5421 6.7696 17.3825 6.8356C17.2229 6.90159 17.0519 6.93545 16.8792 6.93523Z" fill="white"/>
</svg>
