<svg width="23" height="23" viewBox="0 0 23 23" fill="none" xmlns="http://www.w3.org/2000/svg">
<path d="M12.8217 22.0601H7.94553L7.94553 7.43149H12.8217V9.86959C13.3351 9.21651 13.9866 8.68512 14.7295 8.31355C15.4724 7.94197 16.2884 7.73941 17.1189 7.72041C18.5712 7.72847 19.9611 8.31216 20.9838 9.34349C22.0064 10.3748 22.5783 11.7696 22.5741 13.222V22.0601H17.6979V13.8315C17.6036 13.1727 17.2745 12.5701 16.7712 12.1347C16.2679 11.6992 15.6242 11.4602 14.9587 11.4617C14.6609 11.4711 14.368 11.5406 14.0976 11.666C13.8273 11.7914 13.585 11.9701 13.3855 12.1914C13.1859 12.4127 13.0331 12.6721 12.9362 12.9539C12.8393 13.2358 12.8004 13.5343 12.8217 13.8315V22.0601ZM5.50743 22.0601H0.631226L0.631226 7.43149H5.50743L5.50743 22.0601ZM3.06933 4.99339C2.4227 4.99339 1.80256 4.73652 1.34533 4.27929C0.888096 3.82205 0.631226 3.20191 0.631226 2.55529C0.631226 1.90866 0.888096 1.28852 1.34533 0.831291C1.80256 0.374058 2.4227 0.117188 3.06933 0.117187C3.71595 0.117188 4.33609 0.374058 4.79332 0.831291C5.25056 1.28852 5.50743 1.90866 5.50743 2.55529C5.50743 3.20191 5.25056 3.82205 4.79332 4.27929C4.33609 4.73652 3.71595 4.99339 3.06933 4.99339Z" fill="white"/>
</svg>
