<svg width="44" height="44" viewBox="0 0 44 44" fill="none" xmlns="http://www.w3.org/2000/svg">
<g clip-path="url(#clip0_0_837)">
<path d="M16.775 13.7317C15.7483 13.7317 14.9417 14.5567 14.9417 15.565C14.9417 16.5734 15.7667 17.3984 16.775 17.3984C17.7833 17.3984 18.6083 16.5734 18.6083 15.565C18.6083 14.5567 17.7833 13.7317 16.775 13.7317Z" fill="#797C80"/>
<path d="M39.3433 9.24002C37.8033 5.66502 34.4117 3.66669 29.6817 3.66669H14.3183C8.43334 3.66669 3.66667 8.43335 3.66667 14.3184V29.6817C3.66667 34.4117 5.665 37.8034 9.24 39.3433C9.58834 39.49 9.99167 39.3984 10.2483 39.1417L39.1417 10.2484C39.4167 9.97335 39.5083 9.57002 39.3433 9.24002ZM19.305 22.44C18.59 23.1367 17.655 23.4667 16.72 23.4667C15.785 23.4667 14.85 23.1184 14.135 22.44C12.265 20.68 10.2117 17.875 11 14.5384C11.6967 11.5134 14.3733 10.1567 16.72 10.1567C19.0667 10.1567 21.7433 11.5134 22.44 14.5567C23.21 17.875 21.1567 20.68 19.305 22.44Z" fill="#797C80"/>
<path d="M35.695 37.6383C36.0983 38.0417 36.0433 38.7017 35.5483 38.9767C33.935 39.875 31.9733 40.3333 29.6817 40.3333H14.3183C13.7867 40.3333 13.5667 39.71 13.9333 39.3433L25.0067 28.27C25.3733 27.9033 25.9417 27.9033 26.3083 28.27L35.695 37.6383Z" fill="#797C80"/>
<path d="M40.3333 14.3183V29.6816C40.3333 31.9733 39.875 33.9533 38.9767 35.5483C38.7017 36.0433 38.0417 36.08 37.6383 35.695L28.2517 26.3083C27.885 25.9416 27.885 25.3733 28.2517 25.0066L39.325 13.9333C39.71 13.5666 40.3333 13.7866 40.3333 14.3183Z" fill="#797C80"/>
</g>
<defs>
<clipPath id="clip0_0_837">
<rect width="44" height="44" fill="white"/>
</clipPath>
</defs>
</svg>
