<svg width="996" height="693" viewBox="0 0 996 693" fill="none" xmlns="http://www.w3.org/2000/svg">
<g clip-path="url(#clip0_0_650)">
<rect x="0.147217" width="1181.93" height="693" rx="24.3056" fill="#151A23"/>
<path d="M897.221 438.971L912.101 509.121L972.685 485.738L1044.96 466.606L1102.36 438.971L1012.01 325.242L959.931 360.317L926.982 389.015L897.221 438.971Z" fill="#3C4A56"/>
<path d="M674.015 138.175L592.173 151.992L607.054 292.293H646.38L759.046 281.664L814.316 256.155V224.268L780.304 184.942L729.285 151.992L674.015 138.175Z" fill="#3C4A56"/>
<path d="M560.392 712.436C717.164 395.248 952.706 660.179 1230.03 285.873" stroke="#252A32" stroke-width="38.889" stroke-linecap="round"/>
<path d="M350.245 413.735L424.016 397.678L467.732 420.768L497.787 530.143L527.841 556.88L551.065 632.982L411.721 672.332L350.245 413.735Z" fill="#3C4A56"/>
<path d="M138.69 206.126L301.2 199.588L340.426 353.882L138.69 406.186V206.126Z" fill="#3C4A56"/>
<line x1="19.4445" y1="-19.4445" x2="761.422" y2="-19.4445" transform="matrix(0.19443 0.980916 -0.98792 0.154963 522.378 -50.7605)" stroke="#252A32" stroke-width="38.889" stroke-linecap="round"/>
<line x1="12.1528" y1="-12.1528" x2="768.713" y2="-12.1528" transform="matrix(0.19443 0.980916 -0.98792 0.154963 257.349 -7.0105)" stroke="#252A32" stroke-width="24.3056" stroke-linecap="round"/>
<path d="M1221.51 479.103L237.068 727.016" stroke="#252A32" stroke-width="38.889" stroke-linecap="round"/>
<line x1="19.4445" y1="-19.4445" x2="783.56" y2="-19.4445" transform="matrix(0.544406 0.838822 -0.889535 0.456866 751.887 -50.7605)" stroke="#252A32" stroke-width="38.889" stroke-linecap="round"/>
<path d="M-39.9568 465.735C362.357 326.408 736.543 251.705 1187.78 262.738" stroke="#252A32" stroke-width="38.889" stroke-linecap="round"/>
<path d="M1028.82 323.546L954.896 360.005L894.787 434.137L1028.82 1063.34" stroke="#252A32" stroke-width="24.3056" stroke-linecap="round"/>
<path d="M374.834 557.861L333.861 580.416L301.305 627.495L387.45 1035.78" stroke="#252A32" stroke-width="24.3056" stroke-linecap="round"/>
<path d="M363.907 409.832L425.383 395.248L473.197 420.769L497.788 533.79L531.941 556.881L553.799 637.089" stroke="#252A32" stroke-width="19.4445" stroke-linecap="round"/>
<path d="M943.298 361.071L877.569 270.036" stroke="#252A32" stroke-width="24.3056" stroke-linecap="round"/>
<path d="M645.329 401.325L730.029 368.512L750.521 283.442" stroke="#252A32" stroke-width="24.3056" stroke-linecap="round"/>
<path d="M593.416 146.228L699.974 140.039L791.504 187.435L822.925 255.49" stroke="#252A32" stroke-width="24.3056" stroke-linecap="round"/>
<path d="M243.688 488.419L219.097 389.943" stroke="#252A32" stroke-width="24.3056" stroke-linecap="round"/>
<path d="M325.655 588.072L301.065 489.596" stroke="#252A32" stroke-width="24.3056" stroke-linecap="round"/>
<path d="M510.473 534.866L653.238 505.839" stroke="#252A32" stroke-width="24.3056" stroke-linecap="round"/>
<path d="M299.082 90.1423L377.444 75.6291" stroke="#252A32" stroke-width="24.3056" stroke-linecap="round"/>
<path d="M126.597 401.231L126.089 216.639" stroke="#252A32" stroke-width="24.3056" stroke-linecap="round"/>
<path d="M475.511 416.723L548.334 390.387" stroke="#252A32" stroke-width="24.3056" stroke-linecap="round"/>
<path d="M482.717 311.485L468.312 252.8L415.655 226.927L359.81 -28.8855" stroke="#252A32" stroke-width="24.3056" stroke-linecap="round"/>
<path d="M555.692 383.491L605.711 332.053" stroke="#252A32" stroke-width="24.3056" stroke-linecap="round"/>
<path d="M560.63 396.956L626.629 414.458" stroke="#252A32" stroke-width="24.3056" stroke-linecap="round"/>
<path d="M764.182 157.053L856.138 100.915" stroke="#252A32" stroke-width="24.3056" stroke-linecap="round"/>
<path d="M702.707 133.963L702.707 -0.933433" stroke="#252A32" stroke-width="24.3056" stroke-linecap="round"/>
<path d="M-111.659 226.324L451.34 177.712" stroke="#252A32" stroke-width="24.3056" stroke-linecap="round"/>
<path d="M352.165 454.798L175.148 525.284L109.522 716.083" stroke="#252A32" stroke-width="24.3056" stroke-linecap="round"/>
<path d="M547.532 -23.3833L658.072 520.813" stroke="url(#paint0_linear_0_650)" stroke-width="27.635" stroke-linecap="round"/>
<circle cx="660.198" cy="500.618" r="105.225" fill="#509BBC" fill-opacity="0.11"/>
<circle cx="658.072" cy="498.492" r="60.5844" fill="#5BB9E1" fill-opacity="0.29"/>
<rect x="8.08667" y="-10.2078" width="1346.3" height="209.828" fill="url(#paint1_linear_0_650)"/>
<rect width="1229.51" height="221.715" transform="matrix(-1 0 0 1 1181.99 488.291)" fill="url(#paint2_linear_0_650)"/>
<rect width="704.342" height="221.17" transform="matrix(0 -1 -1 0 221.317 693)" fill="url(#paint3_linear_0_650)"/>
<rect width="704.342" height="221.17" transform="matrix(0 1 1 0 960.82 0)" fill="url(#paint4_linear_0_650)"/>
<path style="mix-blend-mode:multiply" d="M658.88 411.399L636.618 416.095C624.231 418.707 616.307 430.868 618.92 443.255L639.877 542.605C642.49 554.992 654.65 562.916 667.037 560.303L689.298 555.608C701.686 552.995 709.609 540.835 706.997 528.447L686.04 429.097C683.427 416.71 671.267 408.786 658.88 411.399Z" fill="url(#paint5_linear_0_650)"/>
<path d="M676.415 428.339C674.222 421.774 672.219 418.495 669.402 416.137C668.949 416.341 668.458 416.446 667.961 416.446C667.464 416.446 666.973 416.34 666.52 416.136L657.253 411.964C656.781 411.749 656.357 411.441 656.007 411.058C655.656 410.675 655.386 410.225 655.214 409.736L654.021 409.636L655.58 417.026L622.609 423.981L621.05 416.591L620.012 417.22C620.056 417.735 619.996 418.254 619.833 418.745C619.671 419.237 619.411 419.69 619.068 420.078L612.221 427.601C611.894 427.973 611.489 428.269 611.036 428.47C610.583 428.67 610.092 428.771 609.597 428.764C607.961 432.061 607.462 435.856 608.096 442.75C609.829 461.127 619.252 488.528 620.59 495.485C627.937 532.59 632.382 555.162 636.477 562.415C637.409 563.873 638.833 564.948 640.49 565.446C640.85 565.175 641.268 564.991 641.711 564.907C644.571 564.304 646.357 565.884 649.417 564.676C651.43 563.888 652.5 565.466 653.003 566.625C654.939 566.533 656.868 566.349 658.696 566.127C658.8 565.889 658.959 565.678 659.161 565.514C659.362 565.349 659.6 565.235 659.855 565.18L678.46 561.256C678.717 561.201 678.984 561.21 679.238 561.281C679.491 561.352 679.724 561.483 679.916 561.663C681.225 561.258 682.582 560.808 683.933 560.324C683.879 559.07 684.138 556.965 686.425 556.869C689.713 556.738 690.708 554.572 693.568 553.969C693.917 553.879 694.28 553.859 694.637 553.911C694.993 553.962 695.336 554.084 695.646 554.269C697.267 553.076 698.366 551.305 698.714 549.323C699.514 540.954 694.48 518.589 686.214 481.678C684.7 474.723 682.275 445.845 676.415 428.339Z" fill="url(#paint6_linear_0_650)"/>
<path d="M655.581 417.026L654.022 409.636C643.975 408.651 629.844 411.632 621.051 416.59L622.61 423.981L655.581 417.026Z" fill="url(#paint7_linear_0_650)"/>
<path d="M674.611 429.891C670.978 418.944 667.997 417.581 660.569 413.631C650.483 408.297 623.725 413.941 616.664 422.892C611.453 429.509 609.287 431.957 610.374 443.441C612.07 461.087 621.084 487.497 622.413 494.187C629.487 529.885 633.781 551.634 637.663 558.651C642.145 566.737 668.646 560.655 668.646 560.655C668.646 560.655 695.34 555.54 696.181 546.308C696.908 538.318 692.049 516.724 684.105 481.174C682.608 474.52 680.198 446.716 674.611 429.891Z" fill="url(#paint8_radial_0_650)"/>
<path d="M637.236 476.606C633.559 477.915 630.063 479.688 626.834 481.881L627.792 484.256C630.983 481.883 634.51 479.998 638.256 478.663C646.413 476.052 654.815 474.28 663.331 473.374C667.319 473.071 671.329 473.366 675.23 474.249L675.135 471.692C671.288 470.987 667.367 470.778 663.467 471.073C654.562 472.048 645.776 473.901 637.236 476.606Z" fill="url(#paint9_linear_0_650)"/>
<path d="M620.593 460.789C624.039 458.336 627.726 456.24 631.596 454.532C640.465 450.746 649.99 448.737 659.632 448.618C663.862 448.617 668.082 449.046 672.225 449.898C672.96 450.008 673.668 450.256 674.312 450.629L674.298 450.561C674.336 449.79 674.225 449.018 673.97 448.288C673.659 447.92 672.939 447.674 671.691 447.422C667.564 446.531 663.357 446.068 659.135 446.04C649.493 446.159 639.968 448.169 631.099 451.954C627.226 453.659 623.54 455.76 620.098 458.222C619.081 458.952 618.5 459.473 618.363 459.935C618.425 460.706 618.635 461.457 618.982 462.148L618.996 462.215C619.437 461.646 619.978 461.163 620.593 460.789Z" fill="url(#paint10_linear_0_650)"/>
<path d="M637.235 476.606C645.768 473.904 654.547 472.052 663.444 471.077C667.333 470.788 671.243 470.999 675.079 471.704L674.372 450.581C673.728 450.208 673.02 449.96 672.285 449.85C668.141 448.998 663.922 448.569 659.692 448.57C650.05 448.689 640.524 450.698 631.656 454.484C627.785 456.192 624.099 458.288 620.653 460.741C620.024 461.139 619.477 461.652 619.039 462.253L626.901 481.866C630.11 479.683 633.582 477.915 637.235 476.606Z" fill="url(#paint11_linear_0_650)"/>
<path d="M628.736 515.332L633.828 516.261L627.672 491.075L616.863 461.986C616.863 461.986 618.095 469.773 620.818 480.737C622.538 487.671 625.261 497.136 626.558 503.34C627.786 509.219 628.449 513.249 628.736 515.332Z" fill="url(#paint12_linear_0_650)"/>
<path d="M686.854 503.037L682.537 505.951L678.001 480.447L676.152 449.468C676.152 449.468 678.169 457.089 680.105 468.207C681.332 475.246 682.675 485.001 683.992 491.189C685.256 497.072 686.254 501.079 686.854 503.037Z" fill="url(#paint13_linear_0_650)"/>
<path d="M629.085 517.706L634.479 519.18L639.491 540.274C639.504 542.777 639.245 545.275 638.72 547.722C638.371 550.119 637.754 552.469 636.882 554.728C636.882 554.728 630.233 525.757 629.085 517.706Z" fill="url(#paint14_linear_0_650)"/>
<path d="M687.483 505.353L683.143 508.822L687.075 530.131C688.081 532.419 689.326 534.595 690.787 536.622C692.071 538.676 693.584 540.577 695.298 542.289C695.298 542.289 689.683 513.17 687.483 505.353Z" fill="url(#paint15_linear_0_650)"/>
<path d="M649.458 564.703C646.398 565.911 644.612 564.331 641.752 564.934C641.309 565.018 640.891 565.202 640.531 565.473C643.832 566.686 648.456 566.894 653.044 566.652C652.541 565.493 651.426 563.925 649.458 564.703Z" fill="#D60D26"/>
<path d="M686.433 556.903C684.112 557.006 683.886 559.104 683.94 560.357C688.363 558.78 692.795 556.744 695.653 554.302C695.344 554.118 695.001 553.996 694.644 553.944C694.287 553.893 693.924 553.913 693.575 554.003C690.715 554.606 689.733 556.722 686.433 556.903Z" fill="#D60D26"/>
<path d="M622.48 452.356C622.48 452.356 625.84 441.351 625.792 437.46C625.757 434.516 623.037 426.011 623.037 426.011C623.037 426.011 624.202 434.422 624.232 437.227C624.171 441.047 622.48 452.356 622.48 452.356Z" fill="url(#paint16_linear_0_650)"/>
<path d="M667.193 442.924C667.193 442.924 659.685 434.211 658.158 430.633C656.989 427.927 656.008 419.056 656.008 419.056C656.008 419.056 658.351 427.218 659.446 429.799C661.089 433.259 667.193 442.924 667.193 442.924Z" fill="url(#paint17_linear_0_650)"/>
<path style="mix-blend-mode:screen" d="M672.269 449.888C668.126 449.036 663.907 448.608 659.677 448.609C657.402 448.605 655.129 448.729 652.867 448.979C648.294 456.62 643.711 469.652 641.878 475.181C648.957 473.255 656.175 471.881 663.466 471.072C667.356 470.783 671.266 470.994 675.101 471.699L674.372 450.581C673.721 450.22 673.008 449.985 672.269 449.888Z" fill="url(#paint18_linear_0_650)"/>
<path d="M650.838 476.232C633.608 479.456 628.751 485.248 628.751 485.248C628.751 485.248 642.488 549.376 644.673 553.237C646.164 555.863 656.778 552.535 663.763 551.553L669.437 550.356C676.217 548.399 687.281 547.155 687.581 544.186C688.013 539.738 674.697 475.557 674.697 475.557C674.697 475.557 667.959 472.21 650.838 476.232Z" fill="url(#paint19_linear_0_650)"/>
<path d="M619.271 421.37C619.271 421.37 610.034 428.777 611.363 440.632C611.973 446.701 612.913 452.732 614.178 458.698C614.178 458.698 611.73 429.544 619.271 421.37Z" fill="url(#paint20_linear_0_650)"/>
<path d="M657.614 413.282C657.614 413.282 669.079 416.323 672.624 427.687C674.515 433.485 676.095 439.381 677.356 445.348C677.356 445.348 667.814 417.714 657.614 413.282Z" fill="url(#paint21_linear_0_650)"/>
<path d="M676.301 451.064C676.301 451.064 679.149 451.014 679.634 453.313C680.119 455.612 678.414 460.856 677.733 457.907C677.097 455.663 676.618 453.376 676.301 451.064Z" fill="url(#paint22_linear_0_650)"/>
<path d="M687.118 454.03C686.81 452.573 679.388 452.147 679.313 452.737C679.069 452.758 678.834 452.84 678.629 452.975C678.424 453.111 678.256 453.295 678.14 453.511C678.024 453.727 677.964 453.968 677.965 454.214C677.966 454.459 678.027 454.7 678.144 454.916C681.105 453.941 684.322 454.097 687.174 455.354C687.275 455.146 687.323 454.916 687.313 454.685C687.303 454.454 687.236 454.229 687.118 454.03Z" fill="url(#paint23_linear_0_650)"/>
<path d="M677.977 454.951C678.096 455.268 678.254 455.569 678.447 455.848C681.224 454.815 684.279 454.806 687.063 455.823C687.177 455.671 687.272 455.505 687.345 455.33C684.375 454.056 681.04 453.922 677.977 454.951Z" fill="url(#paint24_linear_0_650)"/>
<path d="M617.099 463.552C617.099 463.552 614.53 464.644 614.948 466.958C615.366 469.271 619.111 473.365 618.542 470.393C618.228 468.081 617.745 465.794 617.099 463.552Z" fill="url(#paint25_linear_0_650)"/>
<path d="M608.413 470.632C608.106 469.174 614.713 465.789 615.019 466.298C615.252 466.219 615.5 466.199 615.742 466.24C615.984 466.281 616.212 466.382 616.405 466.533C616.598 466.684 616.751 466.88 616.849 467.105C616.948 467.33 616.989 467.575 616.969 467.82C613.871 468.125 610.995 469.566 608.896 471.865C608.716 471.719 608.577 471.529 608.492 471.312C608.407 471.096 608.38 470.862 608.413 470.632Z" fill="url(#paint26_linear_0_650)"/>
<path d="M617.092 467.794C617.104 468.131 617.085 468.468 617.035 468.801C614.088 469.003 611.308 470.241 609.186 472.296C609.02 472.203 608.867 472.09 608.729 471.959C610.912 469.594 613.888 468.111 617.092 467.794Z" fill="url(#paint27_linear_0_650)"/>
<path d="M620.478 494.396C620.29 494.439 620.127 494.553 620.023 494.716C619.919 494.878 619.883 495.074 619.923 495.263L621.172 501.184C621.211 501.371 621.324 501.535 621.484 501.64C621.645 501.744 621.84 501.781 622.028 501.741L620.478 494.396Z" fill="#595959"/>
<path d="M626.369 524.101C626.181 524.14 626.017 524.253 625.913 524.413C625.808 524.573 625.772 524.769 625.811 524.956L627.06 530.878C627.078 530.972 627.115 531.061 627.168 531.141C627.222 531.22 627.29 531.289 627.37 531.342C627.45 531.395 627.539 531.431 627.634 531.449C627.728 531.467 627.824 531.466 627.918 531.446L626.369 524.101Z" fill="#595959"/>
<path d="M685.948 480.586C686.139 480.546 686.337 480.583 686.5 480.689C686.663 480.795 686.777 480.962 686.818 481.152L688.067 487.074C688.103 487.263 688.064 487.459 687.958 487.619C687.852 487.78 687.686 487.892 687.498 487.932L685.948 480.586Z" fill="#595959"/>
<path d="M692.557 510.139C692.746 510.099 692.942 510.135 693.104 510.239C693.266 510.343 693.381 510.506 693.424 510.694L694.673 516.615C694.713 516.806 694.676 517.004 694.57 517.167C694.464 517.33 694.297 517.444 694.107 517.484L692.557 510.139Z" fill="#595959"/>
<path d="M628.813 448.782C629.916 448.456 630.373 447.68 631.509 447.347C631.553 447.332 631.59 447.302 631.613 447.263C631.637 447.224 631.646 447.177 631.639 447.132C631.63 447.087 631.603 447.048 631.565 447.023C631.527 446.998 631.48 446.99 631.436 446.999C630.335 447.336 629.867 448.115 628.742 448.446C628.698 448.455 628.658 448.482 628.634 448.52C628.609 448.558 628.6 448.605 628.609 448.649C628.612 448.672 628.62 448.694 628.633 448.714C628.645 448.733 628.661 448.75 628.681 448.762C628.7 448.775 628.722 448.783 628.745 448.787C628.768 448.79 628.791 448.789 628.813 448.782Z" fill="#9E9E9E"/>
<path d="M631.591 447.68C630.488 448.007 630.02 448.785 628.895 449.116C628.872 449.121 628.85 449.13 628.831 449.144C628.812 449.158 628.795 449.175 628.783 449.195C628.771 449.215 628.763 449.238 628.76 449.261C628.757 449.284 628.758 449.308 628.765 449.331C628.767 449.353 628.775 449.375 628.787 449.394C628.8 449.413 628.816 449.429 628.836 449.441C628.855 449.453 628.877 449.46 628.9 449.462C628.922 449.464 628.945 449.461 628.966 449.452C630.069 449.126 630.526 448.35 631.662 448.017C631.707 448.004 631.745 447.975 631.77 447.935C631.794 447.895 631.802 447.848 631.792 447.802C631.788 447.78 631.779 447.76 631.766 447.742C631.753 447.724 631.737 447.709 631.718 447.697C631.699 447.686 631.678 447.679 631.656 447.676C631.634 447.673 631.612 447.674 631.591 447.68Z" fill="#9E9E9E"/>
<path d="M631.724 448.308C630.621 448.635 630.153 449.413 629.028 449.744C628.983 449.756 628.944 449.786 628.92 449.826C628.896 449.865 628.888 449.913 628.898 449.959C628.9 449.981 628.908 450.003 628.92 450.022C628.933 450.041 628.949 450.057 628.969 450.069C628.988 450.081 629.01 450.088 629.032 450.09C629.055 450.092 629.078 450.088 629.099 450.08C630.201 449.754 630.659 448.978 631.795 448.645C631.84 448.632 631.878 448.603 631.903 448.563C631.927 448.523 631.935 448.476 631.925 448.43C631.921 448.408 631.912 448.388 631.899 448.37C631.886 448.352 631.87 448.337 631.851 448.325C631.832 448.314 631.811 448.306 631.789 448.304C631.767 448.301 631.745 448.302 631.724 448.308Z" fill="#9E9E9E"/>
<path d="M659.877 442.23C658.737 442.376 658.006 441.851 656.831 442.005C656.786 442.009 656.74 441.997 656.702 441.971C656.664 441.945 656.637 441.906 656.625 441.861C656.616 441.817 656.625 441.77 656.65 441.732C656.674 441.694 656.714 441.667 656.758 441.658C657.901 441.522 658.644 442.045 659.807 441.893C659.851 441.884 659.898 441.892 659.936 441.917C659.974 441.942 660.001 441.981 660.01 442.026C660.017 442.048 660.018 442.071 660.015 442.094C660.011 442.117 660.003 442.139 659.991 442.158C659.978 442.177 659.961 442.194 659.942 442.206C659.922 442.219 659.9 442.227 659.877 442.23Z" fill="#9E9E9E"/>
<path d="M656.902 442.341C658.043 442.195 658.786 442.717 659.948 442.566C659.972 442.561 659.995 442.561 660.018 442.565C660.042 442.57 660.063 442.579 660.083 442.593C660.102 442.606 660.118 442.624 660.131 442.644C660.143 442.664 660.151 442.686 660.155 442.71C660.161 442.731 660.163 442.754 660.159 442.777C660.156 442.799 660.147 442.82 660.134 442.839C660.121 442.857 660.104 442.873 660.084 442.884C660.064 442.895 660.042 442.901 660.019 442.902C658.879 443.049 658.147 442.524 656.973 442.678C656.927 442.685 656.88 442.673 656.842 442.647C656.804 442.62 656.777 442.58 656.767 442.534C656.763 442.512 656.763 442.49 656.767 442.468C656.771 442.447 656.78 442.426 656.793 442.408C656.806 442.39 656.822 442.375 656.841 442.363C656.86 442.352 656.881 442.344 656.902 442.341Z" fill="#9E9E9E"/>
<path d="M657.035 442.969C658.175 442.822 658.918 443.345 660.081 443.194C660.127 443.187 660.174 443.198 660.212 443.225C660.251 443.251 660.277 443.292 660.287 443.338C660.294 443.359 660.295 443.382 660.292 443.405C660.288 443.427 660.279 443.448 660.266 443.467C660.253 443.485 660.236 443.501 660.216 443.512C660.197 443.523 660.174 443.529 660.152 443.53C659.011 443.677 658.28 443.152 657.106 443.306C657.06 443.313 657.013 443.301 656.974 443.275C656.936 443.248 656.909 443.208 656.9 443.162C656.895 443.14 656.895 443.118 656.899 443.096C656.904 443.075 656.913 443.054 656.925 443.036C656.938 443.018 656.954 443.003 656.973 442.991C656.992 442.98 657.013 442.972 657.035 442.969Z" fill="#9E9E9E"/>
<path d="M678.467 561.289L659.896 565.207C659.641 565.261 659.403 565.375 659.202 565.54C659 565.705 658.841 565.915 658.737 566.154C664.668 565.453 669.429 564.367 669.429 564.367C669.429 564.367 674.214 563.451 679.923 561.696C679.731 561.517 679.499 561.386 679.245 561.315C678.992 561.244 678.725 561.235 678.467 561.289Z" fill="url(#paint28_linear_0_650)"/>
<path d="M660.569 413.631C664.025 415.468 666.52 416.745 668.559 418.693C668.858 418.056 668.754 416.45 669.41 416.171C666.97 414.362 664.347 412.815 661.583 411.555C659.58 410.589 657.426 409.974 655.214 409.736C655.547 410.624 655.988 411.467 656.528 412.246C657.93 412.529 659.289 412.995 660.569 413.631Z" fill="url(#paint29_radial_0_650)"/>
<path d="M616.708 422.883C614.277 425.961 612.522 428.135 611.432 430.743C610.912 430.279 610.359 428.767 609.647 428.777C611.14 426.135 612.911 423.661 614.931 421.395C616.369 419.709 618.083 418.278 620 417.163C620.058 418.109 619.998 419.058 619.823 419.989C618.659 420.809 617.612 421.782 616.708 422.883Z" fill="url(#paint30_radial_0_650)"/>
<path style="mix-blend-mode:screen" d="M634.479 519.18L629.084 517.706C629.719 522.105 631.971 532.782 633.927 541.553C635.678 538.36 636.625 533.686 636.642 528.271L634.479 519.18Z" fill="url(#paint31_linear_0_650)"/>
<path style="mix-blend-mode:screen" d="M626.831 504.688C627.94 501.951 628.646 499.068 628.926 496.128L627.684 491.072L616.863 461.986C616.863 461.986 618.095 469.773 620.818 480.737C622.538 487.671 625.261 497.136 626.558 503.34C626.655 503.8 626.736 504.239 626.831 504.688Z" fill="url(#paint32_linear_0_650)"/>
<path style="mix-blend-mode:screen" d="M683.267 508.796L687.618 505.324C688.827 509.614 691.041 520.275 692.812 529.061C689.921 526.848 687.167 522.955 684.964 518.008L683.267 508.796Z" fill="url(#paint33_linear_0_650)"/>
<path style="mix-blend-mode:screen" d="M684.391 492.523C682.274 490.466 680.468 488.113 679.028 485.536L678.125 480.421L676.275 449.442C676.275 449.442 678.293 457.063 680.228 468.181C681.478 475.215 682.799 484.975 684.1 491.143C684.204 491.637 684.296 492.074 684.391 492.523Z" fill="url(#paint34_linear_0_650)"/>
<path d="M648.099 430.482L633.116 433.643L633.261 434.327L648.243 431.166L648.099 430.482Z" fill="url(#paint35_linear_0_650)"/>
<path d="M648.444 432.119L633.462 435.28L633.606 435.964L648.589 432.803L648.444 432.119Z" fill="url(#paint36_linear_0_650)"/>
<path d="M648.792 433.768L633.81 436.928L633.954 437.612L648.937 434.452L648.792 433.768Z" fill="url(#paint37_linear_0_650)"/>
<path d="M649.137 435.405L634.155 438.566L634.299 439.25L649.282 436.089L649.137 435.405Z" fill="url(#paint38_linear_0_650)"/>
<path d="M644.359 552.026C643.75 555.221 643.649 558.492 644.061 561.718C644.062 562.889 649.111 562.89 656.367 562.917C661.963 563.177 675.728 560.297 680.737 557.777C687.368 554.843 691.869 552.91 691.378 551.526C690.543 548.478 689.198 545.593 687.399 542.994C681.008 546.905 673.967 549.636 666.61 551.058C659.305 552.666 651.776 552.993 644.359 552.026Z" fill="url(#paint39_linear_0_650)"/>
<path style="mix-blend-mode:screen" d="M687.801 542.898C681.426 546.828 674.398 549.584 667.051 551.035C664.808 551.508 662.698 551.836 660.686 552.073C654.741 554.873 650.92 561.302 650.075 562.85C652.336 562.952 654.601 562.94 656.861 562.813C662.463 563.048 676.207 560.126 681.219 557.675C684.998 556.013 688.564 553.904 691.842 551.393C692.165 551.981 690.745 547.138 687.801 542.898Z" fill="url(#paint40_linear_0_650)"/>
<g filter="url(#filter0_d_0_650)">
<path d="M255.239 241.806C255.239 231.533 263.567 223.206 273.84 223.206H371.094C385.769 223.206 397.666 235.102 397.666 249.778C397.666 264.453 385.769 276.35 371.094 276.35H255.239V241.806Z" fill="#333842"/>
</g>
<rect x="348.773" y="227.457" width="44.6411" height="44.6411" rx="22.3206" fill="#75A6BB"/>
<path d="M368.453 259.053C367.543 259.053 366.689 258.883 365.89 258.543C365.09 258.194 364.397 257.701 363.811 257.063C363.232 256.426 362.812 255.673 362.548 254.806L365.124 254.092C365.371 254.882 365.8 255.49 366.413 255.915C367.025 256.332 367.705 256.536 368.453 256.528C369.125 256.519 369.716 256.362 370.226 256.056C370.736 255.75 371.136 255.337 371.425 254.819C371.714 254.291 371.859 253.688 371.859 253.007C371.859 251.987 371.54 251.145 370.902 250.482C370.273 249.819 369.448 249.487 368.428 249.487C368.139 249.487 367.841 249.53 367.535 249.615C367.237 249.7 366.957 249.81 366.693 249.946L365.443 247.842L371.923 242.115L372.203 242.88H363.275V240.342H374.32V242.88L368.938 248.059L368.912 247.191C370.069 247.191 371.072 247.451 371.923 247.969C372.773 248.48 373.428 249.177 373.887 250.061C374.354 250.937 374.588 251.919 374.588 253.007C374.588 254.181 374.312 255.222 373.759 256.132C373.215 257.042 372.48 257.756 371.553 258.275C370.634 258.794 369.601 259.053 368.453 259.053ZM377.605 258.709V255.89H380.424V258.709H377.605Z" fill="white"/>
<path d="M275.625 258.949V256.462H277.847V258.949H275.625ZM275.625 241.911V239.414H277.847V241.911H275.625ZM276.848 257.153C275.785 257.153 274.835 256.962 273.999 256.579C273.163 256.196 272.476 255.654 271.937 254.953C271.406 254.244 271.058 253.408 270.896 252.445L273.096 252.094C273.308 253.001 273.762 253.724 274.456 254.262C275.151 254.793 275.983 255.059 276.954 255.059C277.918 255.059 278.701 254.829 279.303 254.368C279.912 253.908 280.217 253.32 280.217 252.604C280.217 252.094 280.061 251.679 279.749 251.36C279.445 251.042 278.945 250.772 278.251 250.553L274.658 249.447C272.532 248.788 271.469 247.513 271.469 245.621C271.469 244.728 271.682 243.952 272.107 243.293C272.539 242.634 273.145 242.124 273.925 241.763C274.704 241.401 275.615 241.22 276.656 241.22C277.655 241.235 278.541 241.419 279.314 241.773C280.093 242.127 280.738 242.638 281.248 243.304C281.765 243.97 282.123 244.771 282.321 245.706L280.058 246.11C279.958 245.564 279.749 245.082 279.43 244.664C279.119 244.246 278.722 243.92 278.24 243.686C277.765 243.453 277.23 243.332 276.635 243.325C276.075 243.311 275.572 243.399 275.126 243.591C274.686 243.775 274.336 244.037 274.074 244.377C273.818 244.71 273.691 245.089 273.691 245.515C273.691 245.982 273.872 246.379 274.233 246.705C274.594 247.031 275.165 247.311 275.944 247.545L278.761 248.363C280.05 248.746 280.982 249.259 281.556 249.904C282.13 250.549 282.417 251.406 282.417 252.476C282.417 253.412 282.183 254.23 281.716 254.932C281.255 255.626 280.607 256.172 279.771 256.569C278.934 256.958 277.96 257.153 276.848 257.153ZM288.332 257.121C287.574 257.121 286.861 256.979 286.195 256.696C285.529 256.406 284.952 255.995 284.463 255.463C283.981 254.932 283.63 254.305 283.411 253.582L285.558 252.987C285.763 253.646 286.121 254.152 286.631 254.507C287.141 254.854 287.708 255.024 288.332 255.017C288.892 255.01 289.384 254.879 289.809 254.623C290.234 254.368 290.567 254.025 290.808 253.592C291.049 253.153 291.17 252.65 291.17 252.083C291.17 251.233 290.904 250.531 290.373 249.979C289.848 249.426 289.161 249.15 288.311 249.15C288.07 249.15 287.822 249.185 287.566 249.256C287.318 249.327 287.085 249.419 286.865 249.532L285.823 247.778L291.223 243.006L291.457 243.644H284.016V241.529H293.221V243.644L288.736 247.959L288.714 247.236C289.678 247.236 290.514 247.453 291.223 247.885C291.931 248.31 292.477 248.891 292.86 249.628C293.249 250.358 293.444 251.176 293.444 252.083C293.444 253.061 293.214 253.929 292.753 254.687C292.3 255.445 291.687 256.041 290.915 256.473C290.149 256.905 289.288 257.121 288.332 257.121ZM295.958 256.834V254.485H298.307V256.834H295.958ZM300.595 256.824L300.606 254.847L307.27 248.873C307.809 248.398 308.174 247.945 308.365 247.513C308.563 247.081 308.663 246.648 308.663 246.216C308.663 245.67 308.542 245.181 308.301 244.749C308.06 244.31 307.727 243.963 307.302 243.708C306.877 243.453 306.388 243.325 305.835 243.325C305.268 243.325 304.762 243.46 304.315 243.729C303.876 243.991 303.532 244.342 303.284 244.781C303.036 245.22 302.916 245.695 302.923 246.205H300.648C300.648 245.213 300.872 244.345 301.318 243.601C301.772 242.85 302.392 242.266 303.178 241.848C303.965 241.422 304.865 241.21 305.878 241.21C306.842 241.21 307.706 241.43 308.471 241.869C309.237 242.301 309.839 242.896 310.278 243.654C310.725 244.413 310.948 245.277 310.948 246.248C310.948 246.949 310.856 247.545 310.671 248.034C310.487 248.522 310.211 248.976 309.842 249.394C309.474 249.812 309.013 250.266 308.461 250.755L303.316 255.346L303.072 254.708H310.948V256.824H300.595ZM316.728 241.529H318.971L314.889 256.834H312.647L316.728 241.529ZM329.163 256.834V251.19C329.163 250.744 329.124 250.287 329.046 249.819C328.975 249.344 328.834 248.905 328.621 248.501C328.416 248.097 328.121 247.771 327.739 247.523C327.363 247.275 326.871 247.151 326.261 247.151C325.865 247.151 325.489 247.219 325.135 247.353C324.78 247.481 324.469 247.69 324.199 247.98C323.937 248.271 323.728 248.654 323.572 249.128C323.424 249.603 323.349 250.181 323.349 250.861L321.967 250.34C321.967 249.298 322.162 248.381 322.552 247.587C322.942 246.786 323.501 246.163 324.231 245.716C324.961 245.27 325.843 245.047 326.878 245.047C327.672 245.047 328.338 245.174 328.876 245.429C329.415 245.685 329.85 246.021 330.183 246.439C330.524 246.85 330.782 247.3 330.959 247.789C331.137 248.278 331.257 248.756 331.321 249.224C331.385 249.692 331.416 250.103 331.416 250.457V256.834H329.163ZM321.096 256.834V241.529H323.083V249.787H323.349V256.834H321.096Z" fill="white"/>
<g filter="url(#filter1_d_0_650)">
<path d="M742.04 127.015C742.04 116.742 733.712 108.414 723.439 108.414H641.066C626.391 108.414 614.494 120.311 614.494 134.986C614.494 149.662 626.391 161.558 641.066 161.558H742.04V127.015Z" fill="#333842"/>
</g>
<rect x="618.745" y="112.666" width="44.6411" height="44.6411" rx="22.3206" fill="#75A6BB"/>
<path d="M643.192 143.917V140.716H634.901V138.19L640.87 125.55H643.919L637.95 138.19H643.192V133.216H645.896V138.19H647.72V140.716H645.896V143.917H643.192ZM649.977 143.917V141.098H652.796V143.917H649.977Z" fill="white"/>
<path d="M679.521 144.158V141.671H681.743V144.158H679.521ZM679.521 127.12V124.622H681.743V127.12H679.521ZM680.743 142.362C679.681 142.362 678.731 142.171 677.895 141.788C677.059 141.405 676.371 140.863 675.833 140.162C675.301 139.453 674.954 138.617 674.791 137.653L676.991 137.303C677.204 138.21 677.657 138.932 678.352 139.471C679.046 140.002 679.879 140.268 680.85 140.268C681.813 140.268 682.596 140.038 683.199 139.577C683.808 139.116 684.113 138.528 684.113 137.813C684.113 137.303 683.957 136.888 683.645 136.569C683.34 136.25 682.841 135.981 682.146 135.761L678.554 134.656C676.428 133.997 675.365 132.721 675.365 130.83C675.365 129.937 675.578 129.161 676.003 128.502C676.435 127.843 677.041 127.333 677.82 126.971C678.6 126.61 679.51 126.429 680.552 126.429C681.551 126.443 682.437 126.628 683.209 126.982C683.989 127.336 684.634 127.846 685.144 128.512C685.661 129.179 686.019 129.979 686.217 130.915L683.953 131.318C683.854 130.773 683.645 130.291 683.326 129.873C683.014 129.455 682.618 129.129 682.136 128.895C681.661 128.661 681.126 128.541 680.531 128.534C679.971 128.52 679.468 128.608 679.022 128.799C678.582 128.984 678.231 129.246 677.969 129.586C677.714 129.919 677.587 130.298 677.587 130.723C677.587 131.191 677.767 131.588 678.129 131.914C678.49 132.24 679.061 132.52 679.84 132.753L682.657 133.572C683.946 133.954 684.878 134.468 685.452 135.113C686.026 135.758 686.313 136.615 686.313 137.685C686.313 138.62 686.079 139.439 685.611 140.14C685.151 140.835 684.502 141.38 683.666 141.777C682.83 142.167 681.856 142.362 680.743 142.362ZM687.519 142.032L687.53 140.055L694.194 134.082C694.732 133.607 695.097 133.154 695.289 132.721C695.487 132.289 695.586 131.857 695.586 131.425C695.586 130.879 695.466 130.39 695.225 129.958C694.984 129.519 694.651 129.171 694.226 128.916C693.801 128.661 693.312 128.534 692.759 128.534C692.192 128.534 691.685 128.668 691.239 128.938C690.8 129.2 690.456 129.551 690.208 129.99C689.96 130.429 689.84 130.904 689.847 131.414H687.572C687.572 130.422 687.795 129.554 688.242 128.81C688.695 128.059 689.315 127.474 690.102 127.056C690.888 126.631 691.788 126.419 692.801 126.419C693.765 126.419 694.63 126.638 695.395 127.078C696.16 127.51 696.762 128.105 697.202 128.863C697.648 129.621 697.871 130.486 697.871 131.457C697.871 132.158 697.779 132.753 697.595 133.242C697.411 133.731 697.135 134.185 696.766 134.603C696.398 135.021 695.937 135.474 695.384 135.963L690.24 140.555L689.995 139.917H697.871V142.032H687.519ZM700.165 142.043V139.694H702.514V142.043H700.165ZM705.342 142.043V129.182L702.462 130.936V128.459L705.342 126.737H707.606V142.043H705.342ZM714.873 126.737H717.116L713.035 142.043H710.792L714.873 126.737ZM727.308 142.043V136.399C727.308 135.953 727.27 135.496 727.192 135.028C727.121 134.553 726.979 134.114 726.766 133.71C726.561 133.306 726.267 132.98 725.884 132.732C725.509 132.484 725.016 132.36 724.407 132.36C724.01 132.36 723.634 132.427 723.28 132.562C722.926 132.69 722.614 132.899 722.345 133.189C722.083 133.48 721.874 133.862 721.718 134.337C721.569 134.812 721.495 135.389 721.495 136.07L720.113 135.549C720.113 134.507 720.308 133.59 720.697 132.796C721.087 131.995 721.647 131.372 722.377 130.925C723.107 130.479 723.989 130.256 725.023 130.256C725.817 130.256 726.483 130.383 727.022 130.638C727.56 130.893 727.996 131.23 728.329 131.648C728.669 132.059 728.928 132.509 729.105 132.998C729.282 133.487 729.402 133.965 729.466 134.433C729.53 134.9 729.562 135.311 729.562 135.666V142.043H727.308ZM719.241 142.043V126.737H721.229V134.996H721.495V142.043H719.241Z" fill="white"/>
<g filter="url(#filter2_d_0_650)">
<path d="M960.994 369.352C960.994 359.079 952.666 350.751 942.393 350.751H843.014C828.338 350.751 816.441 362.648 816.441 377.324C816.441 391.999 828.338 403.896 843.014 403.896H960.994V369.352Z" fill="#333842"/>
</g>
<rect x="820.693" y="355.003" width="44.6411" height="44.6411" rx="22.3206" fill="#75A6BB"/>
<path d="M836.849 386.242L836.862 383.869L844.859 376.701C845.505 376.131 845.943 375.587 846.173 375.069C846.411 374.55 846.53 374.031 846.53 373.513C846.53 372.858 846.385 372.271 846.096 371.752C845.807 371.225 845.407 370.809 844.897 370.502C844.387 370.196 843.8 370.043 843.137 370.043C842.457 370.043 841.849 370.205 841.313 370.528C840.786 370.843 840.374 371.263 840.076 371.791C839.778 372.318 839.634 372.888 839.642 373.5H836.913C836.913 372.309 837.181 371.268 837.716 370.375C838.261 369.474 839.005 368.772 839.948 368.27C840.892 367.76 841.972 367.505 843.188 367.505C844.345 367.505 845.382 367.769 846.3 368.296C847.219 368.815 847.941 369.529 848.469 370.439C849.004 371.349 849.272 372.386 849.272 373.551C849.272 374.393 849.162 375.107 848.94 375.694C848.719 376.28 848.388 376.824 847.946 377.326C847.503 377.828 846.951 378.372 846.287 378.959L840.114 384.469L839.821 383.703H849.272V386.242H836.849ZM852.025 386.254V383.436H854.844V386.254H852.025Z" fill="white"/>
<path d="M885.72 386.495V384.008H887.942V386.495H885.72ZM885.72 369.457V366.959H887.942V369.457H885.72ZM886.943 384.699C885.88 384.699 884.93 384.508 884.094 384.125C883.258 383.742 882.571 383.2 882.032 382.499C881.501 381.79 881.154 380.954 880.991 379.99L883.191 379.64C883.403 380.547 883.857 381.269 884.551 381.808C885.246 382.339 886.078 382.605 887.049 382.605C888.013 382.605 888.796 382.375 889.398 381.914C890.007 381.454 890.312 380.866 890.312 380.15C890.312 379.64 890.156 379.225 889.844 378.906C889.54 378.587 889.04 378.318 888.346 378.098L884.753 376.993C882.627 376.334 881.565 375.059 881.565 373.167C881.565 372.274 881.777 371.498 882.202 370.839C882.635 370.18 883.24 369.67 884.02 369.308C884.799 368.947 885.71 368.766 886.751 368.766C887.751 368.781 888.636 368.965 889.409 369.319C890.188 369.673 890.833 370.184 891.343 370.85C891.86 371.516 892.218 372.316 892.417 373.252L890.153 373.656C890.053 373.11 889.844 372.628 889.526 372.21C889.214 371.792 888.817 371.466 888.335 371.232C887.86 370.998 887.325 370.878 886.73 370.871C886.17 370.857 885.667 370.945 885.221 371.137C884.782 371.321 884.431 371.583 884.169 371.923C883.914 372.256 883.786 372.635 883.786 373.06C883.786 373.528 883.967 373.925 884.328 374.251C884.689 374.577 885.26 374.857 886.039 375.091L888.856 375.909C890.146 376.292 891.077 376.805 891.651 377.45C892.225 378.095 892.512 378.952 892.512 380.022C892.512 380.958 892.278 381.776 891.811 382.478C891.35 383.172 890.702 383.718 889.866 384.114C889.03 384.504 888.055 384.699 886.943 384.699ZM893.718 384.369L893.729 382.393L900.393 376.419C900.932 375.944 901.297 375.491 901.488 375.059C901.686 374.626 901.786 374.194 901.786 373.762C901.786 373.216 901.665 372.727 901.424 372.295C901.183 371.856 900.85 371.509 900.425 371.254C900 370.998 899.511 370.871 898.958 370.871C898.391 370.871 897.885 371.006 897.438 371.275C896.999 371.537 896.655 371.888 896.407 372.327C896.159 372.766 896.039 373.241 896.046 373.751H893.771C893.771 372.759 893.995 371.891 894.441 371.147C894.895 370.396 895.515 369.812 896.301 369.393C897.088 368.968 897.988 368.756 899.001 368.756C899.965 368.756 900.829 368.975 901.594 369.415C902.36 369.847 902.962 370.442 903.401 371.2C903.848 371.959 904.071 372.823 904.071 373.794C904.071 374.495 903.979 375.091 903.794 375.579C903.61 376.068 903.334 376.522 902.965 376.94C902.597 377.358 902.136 377.812 901.584 378.3L896.439 382.892L896.195 382.254H904.071V384.369H893.718ZM906.365 384.38V382.031H908.714V384.38H906.365ZM916.763 384.699C915.721 384.699 914.8 384.472 913.999 384.019C913.198 383.558 912.568 382.928 912.107 382.127C911.654 381.326 911.427 380.405 911.427 379.363V374.091C911.427 373.05 911.654 372.129 912.107 371.328C912.568 370.527 913.198 369.9 913.999 369.447C914.8 368.986 915.721 368.756 916.763 368.756C917.804 368.756 918.725 368.986 919.526 369.447C920.327 369.9 920.954 370.527 921.407 371.328C921.868 372.129 922.098 373.05 922.098 374.091V379.363C922.098 380.405 921.868 381.326 921.407 382.127C920.954 382.928 920.327 383.558 919.526 384.019C918.725 384.472 917.804 384.699 916.763 384.699ZM916.763 382.573C917.33 382.573 917.843 382.439 918.304 382.169C918.771 381.893 919.143 381.525 919.42 381.064C919.696 380.596 919.834 380.075 919.834 379.501V373.932C919.834 373.365 919.696 372.851 919.42 372.391C919.143 371.923 918.771 371.555 918.304 371.285C917.843 371.009 917.33 370.871 916.763 370.871C916.196 370.871 915.678 371.009 915.211 371.285C914.75 371.555 914.382 371.923 914.105 372.391C913.829 372.851 913.691 373.365 913.691 373.932V379.501C913.691 380.075 913.829 380.596 914.105 381.064C914.382 381.525 914.75 381.893 915.211 382.169C915.678 382.439 916.196 382.573 916.763 382.573ZM928.297 369.075H930.54L926.458 384.38H924.216L928.297 369.075ZM940.732 384.38V378.736C940.732 378.29 940.693 377.833 940.615 377.365C940.544 376.89 940.403 376.451 940.19 376.047C939.985 375.643 939.691 375.317 939.308 375.069C938.932 374.821 938.44 374.697 937.83 374.697C937.434 374.697 937.058 374.765 936.704 374.899C936.35 375.027 936.038 375.236 935.768 375.526C935.506 375.817 935.297 376.199 935.141 376.674C934.993 377.149 934.918 377.726 934.918 378.407L933.536 377.886C933.536 376.844 933.731 375.927 934.121 375.133C934.511 374.332 935.071 373.709 935.8 373.262C936.53 372.816 937.412 372.593 938.447 372.593C939.241 372.593 939.907 372.72 940.445 372.975C940.984 373.23 941.419 373.567 941.753 373.985C942.093 374.396 942.351 374.846 942.528 375.335C942.706 375.824 942.826 376.302 942.89 376.77C942.954 377.238 942.985 377.649 942.985 378.003V384.38H940.732ZM932.665 384.38V369.075H934.652V377.333H934.918V384.38H932.665Z" fill="white"/>
<g filter="url(#filter3_d_0_650)">
<path d="M450.81 454.383C450.81 444.11 442.482 435.782 432.209 435.782H332.83C318.154 435.782 306.258 447.679 306.258 462.354C306.258 477.03 318.154 488.926 332.83 488.926H450.81V454.383Z" fill="#333842"/>
</g>
<rect x="310.509" y="440.034" width="44.6411" height="44.6411" rx="22.3206" fill="#75A6BB"/>
<path d="M330.377 471.285V455.852L326.92 457.957V454.985L330.377 452.919H333.093V471.285H330.377ZM336.61 471.285V468.467H339.428V471.285H336.61Z" fill="white"/>
<path d="M375.536 471.526V469.039H377.758V471.526H375.536ZM375.536 454.488V451.99H377.758V454.488H375.536ZM376.759 469.73C375.696 469.73 374.746 469.538 373.91 469.156C373.074 468.773 372.387 468.231 371.848 467.53C371.317 466.821 370.969 465.985 370.807 465.021L373.007 464.67C373.219 465.577 373.673 466.3 374.367 466.839C375.062 467.37 375.894 467.636 376.865 467.636C377.829 467.636 378.612 467.406 379.214 466.945C379.823 466.484 380.128 465.896 380.128 465.181C380.128 464.67 379.972 464.256 379.66 463.937C379.356 463.618 378.856 463.349 378.162 463.129L374.569 462.024C372.443 461.365 371.38 460.089 371.38 458.197C371.38 457.305 371.593 456.529 372.018 455.87C372.45 455.211 373.056 454.701 373.836 454.339C374.615 453.978 375.526 453.797 376.567 453.797C377.566 453.811 378.452 453.996 379.225 454.35C380.004 454.704 380.649 455.214 381.159 455.88C381.676 456.546 382.034 457.347 382.233 458.282L379.969 458.686C379.869 458.141 379.66 457.659 379.341 457.241C379.03 456.823 378.633 456.497 378.151 456.263C377.676 456.029 377.141 455.909 376.546 455.902C375.986 455.887 375.483 455.976 375.037 456.167C374.597 456.352 374.247 456.614 373.985 456.954C373.729 457.287 373.602 457.666 373.602 458.091C373.602 458.559 373.783 458.956 374.144 459.282C374.505 459.608 375.076 459.887 375.855 460.121L378.672 460.94C379.961 461.322 380.893 461.836 381.467 462.481C382.041 463.126 382.328 463.983 382.328 465.053C382.328 465.988 382.094 466.807 381.627 467.508C381.166 468.203 380.518 468.748 379.682 469.145C378.845 469.535 377.871 469.73 376.759 469.73ZM388.498 469.73C387.711 469.73 386.978 469.57 386.298 469.251C385.625 468.926 385.047 468.479 384.565 467.912C384.083 467.338 383.74 466.679 383.534 465.935L385.671 465.361C385.791 465.815 385.997 466.208 386.287 466.541C386.585 466.874 386.932 467.133 387.329 467.317C387.726 467.494 388.136 467.583 388.562 467.583C389.121 467.583 389.628 467.448 390.082 467.179C390.542 466.91 390.904 466.548 391.166 466.095C391.435 465.641 391.57 465.142 391.57 464.596C391.57 464.036 391.431 463.53 391.155 463.076C390.886 462.623 390.521 462.265 390.06 462.003C389.607 461.733 389.107 461.599 388.562 461.599C387.938 461.599 387.41 461.723 386.978 461.971C386.546 462.219 386.209 462.506 385.968 462.832L384.034 462.151L384.501 454.105H392.76V456.199H385.639L386.542 455.36L386.17 461.386L385.734 460.823C386.138 460.419 386.62 460.111 387.18 459.898C387.74 459.686 388.296 459.579 388.849 459.579C389.798 459.579 390.645 459.799 391.389 460.238C392.14 460.678 392.732 461.276 393.164 462.034C393.596 462.786 393.812 463.639 393.812 464.596C393.812 465.546 393.568 466.41 393.079 467.189C392.59 467.962 391.942 468.578 391.134 469.039C390.326 469.499 389.447 469.73 388.498 469.73ZM396.098 469.411V467.062H398.447V469.411H396.098ZM406.495 469.73C405.454 469.73 404.533 469.503 403.732 469.05C402.931 468.589 402.301 467.958 401.84 467.158C401.387 466.357 401.16 465.436 401.16 464.394V459.122C401.16 458.081 401.387 457.159 401.84 456.359C402.301 455.558 402.931 454.931 403.732 454.477C404.533 454.017 405.454 453.787 406.495 453.787C407.537 453.787 408.458 454.017 409.259 454.477C410.06 454.931 410.687 455.558 411.14 456.359C411.601 457.159 411.831 458.081 411.831 459.122V464.394C411.831 465.436 411.601 466.357 411.14 467.158C410.687 467.958 410.06 468.589 409.259 469.05C408.458 469.503 407.537 469.73 406.495 469.73ZM406.495 467.604C407.062 467.604 407.576 467.469 408.037 467.2C408.504 466.924 408.876 466.555 409.153 466.095C409.429 465.627 409.567 465.106 409.567 464.532V458.963C409.567 458.396 409.429 457.882 409.153 457.422C408.876 456.954 408.504 456.585 408.037 456.316C407.576 456.04 407.062 455.902 406.495 455.902C405.929 455.902 405.411 456.04 404.944 456.316C404.483 456.585 404.115 456.954 403.838 457.422C403.562 457.882 403.424 458.396 403.424 458.963V464.532C403.424 465.106 403.562 465.627 403.838 466.095C404.115 466.555 404.483 466.924 404.944 467.2C405.411 467.469 405.929 467.604 406.495 467.604ZM418.03 454.105H420.273L416.191 469.411H413.948L418.03 454.105ZM430.465 469.411V463.767C430.465 463.321 430.426 462.864 430.348 462.396C430.277 461.921 430.136 461.482 429.923 461.078C429.717 460.674 429.423 460.348 429.041 460.1C428.665 459.852 428.173 459.728 427.563 459.728C427.167 459.728 426.791 459.795 426.437 459.93C426.082 460.058 425.771 460.267 425.501 460.557C425.239 460.848 425.03 461.23 424.874 461.705C424.725 462.18 424.651 462.757 424.651 463.437L423.269 462.917C423.269 461.875 423.464 460.957 423.854 460.164C424.244 459.363 424.803 458.74 425.533 458.293C426.263 457.847 427.145 457.624 428.18 457.624C428.973 457.624 429.639 457.751 430.178 458.006C430.717 458.261 431.152 458.598 431.485 459.016C431.825 459.427 432.084 459.877 432.261 460.366C432.438 460.855 432.559 461.333 432.623 461.801C432.686 462.268 432.718 462.679 432.718 463.034V469.411H430.465ZM422.398 469.411V454.105H424.385V462.364H424.651V469.411H422.398Z" fill="white"/>
</g>
<defs>
<filter id="filter0_d_0_650" x="210.598" y="208.325" width="231.709" height="142.426" filterUnits="userSpaceOnUse" color-interpolation-filters="sRGB">
<feFlood flood-opacity="0" result="BackgroundImageFix"/>
<feColorMatrix in="SourceAlpha" type="matrix" values="0 0 0 0 0 0 0 0 0 0 0 0 0 0 0 0 0 0 127 0" result="hardAlpha"/>
<feOffset dy="29.7607"/>
<feGaussianBlur stdDeviation="22.3206"/>
<feComposite in2="hardAlpha" operator="out"/>
<feColorMatrix type="matrix" values="0 0 0 0 0 0 0 0 0 0 0 0 0 0 0 0 0 0 0.45 0"/>
<feBlend mode="normal" in2="BackgroundImageFix" result="effect1_dropShadow_0_650"/>
<feBlend mode="normal" in="SourceGraphic" in2="effect1_dropShadow_0_650" result="shape"/>
</filter>
<filter id="filter1_d_0_650" x="569.853" y="93.5337" width="216.828" height="142.426" filterUnits="userSpaceOnUse" color-interpolation-filters="sRGB">
<feFlood flood-opacity="0" result="BackgroundImageFix"/>
<feColorMatrix in="SourceAlpha" type="matrix" values="0 0 0 0 0 0 0 0 0 0 0 0 0 0 0 0 0 0 127 0" result="hardAlpha"/>
<feOffset dy="29.7607"/>
<feGaussianBlur stdDeviation="22.3206"/>
<feComposite in2="hardAlpha" operator="out"/>
<feColorMatrix type="matrix" values="0 0 0 0 0 0 0 0 0 0 0 0 0 0 0 0 0 0 0.45 0"/>
<feBlend mode="normal" in2="BackgroundImageFix" result="effect1_dropShadow_0_650"/>
<feBlend mode="normal" in="SourceGraphic" in2="effect1_dropShadow_0_650" result="shape"/>
</filter>
<filter id="filter2_d_0_650" x="771.8" y="335.871" width="233.834" height="142.426" filterUnits="userSpaceOnUse" color-interpolation-filters="sRGB">
<feFlood flood-opacity="0" result="BackgroundImageFix"/>
<feColorMatrix in="SourceAlpha" type="matrix" values="0 0 0 0 0 0 0 0 0 0 0 0 0 0 0 0 0 0 127 0" result="hardAlpha"/>
<feOffset dy="29.7607"/>
<feGaussianBlur stdDeviation="22.3206"/>
<feComposite in2="hardAlpha" operator="out"/>
<feColorMatrix type="matrix" values="0 0 0 0 0 0 0 0 0 0 0 0 0 0 0 0 0 0 0.45 0"/>
<feBlend mode="normal" in2="BackgroundImageFix" result="effect1_dropShadow_0_650"/>
<feBlend mode="normal" in="SourceGraphic" in2="effect1_dropShadow_0_650" result="shape"/>
</filter>
<filter id="filter3_d_0_650" x="261.616" y="420.902" width="233.834" height="142.426" filterUnits="userSpaceOnUse" color-interpolation-filters="sRGB">
<feFlood flood-opacity="0" result="BackgroundImageFix"/>
<feColorMatrix in="SourceAlpha" type="matrix" values="0 0 0 0 0 0 0 0 0 0 0 0 0 0 0 0 0 0 127 0" result="hardAlpha"/>
<feOffset dy="29.7607"/>
<feGaussianBlur stdDeviation="22.3206"/>
<feComposite in2="hardAlpha" operator="out"/>
<feColorMatrix type="matrix" values="0 0 0 0 0 0 0 0 0 0 0 0 0 0 0 0 0 0 0.45 0"/>
<feBlend mode="normal" in2="BackgroundImageFix" result="effect1_dropShadow_0_650"/>
<feBlend mode="normal" in="SourceGraphic" in2="effect1_dropShadow_0_650" result="shape"/>
</filter>
<linearGradient id="paint0_linear_0_650" x1="643.192" y1="492.115" x2="561.35" y2="-27.6349" gradientUnits="userSpaceOnUse">
<stop stop-color="#5BB9E1"/>
<stop offset="1" stop-color="#5BB9E1" stop-opacity="0"/>
</linearGradient>
<linearGradient id="paint1_linear_0_650" x1="681.238" y1="-10.2078" x2="681.238" y2="199.62" gradientUnits="userSpaceOnUse">
<stop stop-color="#151A23"/>
<stop offset="1" stop-color="#151A23" stop-opacity="0"/>
</linearGradient>
<linearGradient id="paint2_linear_0_650" x1="531.772" y1="221.715" x2="534.131" y2="1.27784e-05" gradientUnits="userSpaceOnUse">
<stop stop-color="#151A23"/>
<stop offset="1" stop-color="#151A23" stop-opacity="0"/>
</linearGradient>
<linearGradient id="paint3_linear_0_650" x1="304.633" y1="221.17" x2="308.73" y2="0.0508782" gradientUnits="userSpaceOnUse">
<stop stop-color="#151A23"/>
<stop offset="1" stop-color="#151A23" stop-opacity="0"/>
</linearGradient>
<linearGradient id="paint4_linear_0_650" x1="304.633" y1="221.17" x2="308.73" y2="0.0508782" gradientUnits="userSpaceOnUse">
<stop stop-color="#151A23"/>
<stop offset="1" stop-color="#151A23" stop-opacity="0"/>
</linearGradient>
<linearGradient id="paint5_linear_0_650" x1="655.438" y1="487.432" x2="697.952" y2="478.464" gradientUnits="userSpaceOnUse">
<stop stop-color="#242424"/>
<stop offset="1" stop-color="white"/>
</linearGradient>
<linearGradient id="paint6_linear_0_650" x1="621.297" y1="508.61" x2="690.94" y2="493.92" gradientUnits="userSpaceOnUse">
<stop stop-color="#D1D1D1"/>
<stop offset="1" stop-color="#A8ABAA"/>
</linearGradient>
<linearGradient id="paint7_linear_0_650" x1="621.595" y1="419.17" x2="654.543" y2="412.22" gradientUnits="userSpaceOnUse">
<stop stop-color="#525956"/>
<stop offset="1"/>
</linearGradient>
<radialGradient id="paint8_radial_0_650" cx="0" cy="0" r="1" gradientUnits="userSpaceOnUse" gradientTransform="translate(651.361 478.709) rotate(-11.9112) scale(35.1635 135.028)">
<stop offset="0.24" stop-color="white"/>
<stop offset="1" stop-color="#D2D6D5"/>
</radialGradient>
<linearGradient id="paint9_linear_0_650" x1="626.716" y1="481.32" x2="674.961" y2="471.143" gradientUnits="userSpaceOnUse">
<stop/>
<stop offset="1" stop-color="#1B1C1C"/>
</linearGradient>
<linearGradient id="paint10_linear_0_650" x1="617.811" y1="457.932" x2="673.671" y2="446.149" gradientUnits="userSpaceOnUse">
<stop/>
<stop offset="1" stop-color="#1B1C1C"/>
</linearGradient>
<linearGradient id="paint11_linear_0_650" x1="620.462" y1="469.332" x2="675.84" y2="457.651" gradientUnits="userSpaceOnUse">
<stop stop-color="#363B39"/>
<stop offset="1" stop-color="#1B1C1C"/>
</linearGradient>
<linearGradient id="paint12_linear_0_650" x1="622.535" y1="489.71" x2="627.985" y2="488.561" gradientUnits="userSpaceOnUse">
<stop stop-color="#363B39"/>
<stop offset="1" stop-color="#1B1C1C"/>
</linearGradient>
<linearGradient id="paint13_linear_0_650" x1="676.721" y1="478.268" x2="682.183" y2="477.116" gradientUnits="userSpaceOnUse">
<stop stop-color="#363B39"/>
<stop offset="1" stop-color="#1B1C1C"/>
</linearGradient>
<linearGradient id="paint14_linear_0_650" x1="632.748" y1="536.237" x2="638.389" y2="535.048" gradientUnits="userSpaceOnUse">
<stop stop-color="#363B39"/>
<stop offset="1" stop-color="#1B1C1C"/>
</linearGradient>
<linearGradient id="paint15_linear_0_650" x1="685.974" y1="524.963" x2="691.615" y2="523.773" gradientUnits="userSpaceOnUse">
<stop stop-color="#363B39"/>
<stop offset="1" stop-color="#1B1C1C"/>
</linearGradient>
<linearGradient id="paint16_linear_0_650" x1="622.721" y1="448.779" x2="625.346" y2="422.795" gradientUnits="userSpaceOnUse">
<stop stop-color="#D2DBDA"/>
<stop offset="1" stop-color="#B5B5B5"/>
</linearGradient>
<linearGradient id="paint17_linear_0_650" x1="665.146" y1="441.329" x2="653.805" y2="418.104" gradientUnits="userSpaceOnUse">
<stop stop-color="#D2DBDA"/>
<stop offset="1" stop-color="#B5B5B5"/>
</linearGradient>
<linearGradient id="paint18_linear_0_650" x1="646.87" y1="457.975" x2="664.705" y2="465.727" gradientUnits="userSpaceOnUse">
<stop stop-color="#363B39"/>
<stop offset="1"/>
</linearGradient>
<linearGradient id="paint19_linear_0_650" x1="631.182" y1="484.115" x2="736.924" y2="596.469" gradientUnits="userSpaceOnUse">
<stop stop-color="white"/>
<stop offset="1" stop-color="#DBDBDB"/>
</linearGradient>
<linearGradient id="paint20_linear_0_650" x1="599.194" y1="410.928" x2="622.957" y2="450.392" gradientUnits="userSpaceOnUse">
<stop stop-color="#F7F7F7"/>
<stop offset="1" stop-color="#DBDBDB"/>
</linearGradient>
<linearGradient id="paint21_linear_0_650" x1="671.775" y1="395.618" x2="665.965" y2="441.32" gradientUnits="userSpaceOnUse">
<stop stop-color="#F7F7F7"/>
<stop offset="1" stop-color="#DBDBDB"/>
</linearGradient>
<linearGradient id="paint22_linear_0_650" x1="675.883" y1="452.136" x2="684.27" y2="462.409" gradientUnits="userSpaceOnUse">
<stop stop-color="#363B39"/>
<stop offset="1" stop-color="#1B1C1C"/>
</linearGradient>
<linearGradient id="paint23_linear_0_650" x1="678.065" y1="455.096" x2="687.026" y2="453.206" gradientUnits="userSpaceOnUse">
<stop stop-color="white"/>
<stop offset="1" stop-color="#D2D6D5"/>
</linearGradient>
<linearGradient id="paint24_linear_0_650" x1="678.26" y1="456.297" x2="687.232" y2="454.405" gradientUnits="userSpaceOnUse">
<stop stop-color="#363B39"/>
<stop offset="1" stop-color="#1B1C1C"/>
</linearGradient>
<linearGradient id="paint25_linear_0_650" x1="617.926" y1="464.362" x2="614.403" y2="477.146" gradientUnits="userSpaceOnUse">
<stop stop-color="#363B39"/>
<stop offset="1" stop-color="#1B1C1C"/>
</linearGradient>
<linearGradient id="paint26_linear_0_650" x1="617.114" y1="467.953" x2="608.153" y2="469.843" gradientUnits="userSpaceOnUse">
<stop stop-color="white"/>
<stop offset="1" stop-color="#D2D6D5"/>
</linearGradient>
<linearGradient id="paint27_linear_0_650" x1="617.421" y1="469.13" x2="608.46" y2="471.02" gradientUnits="userSpaceOnUse">
<stop stop-color="#363B39"/>
<stop offset="1" stop-color="#1B1C1C"/>
</linearGradient>
<linearGradient id="paint28_linear_0_650" x1="658.713" y1="566.042" x2="679.897" y2="561.573" gradientUnits="userSpaceOnUse">
<stop stop-color="#363B39"/>
<stop offset="1"/>
</linearGradient>
<radialGradient id="paint29_radial_0_650" cx="0" cy="0" r="1" gradientUnits="userSpaceOnUse" gradientTransform="translate(662.558 414.067) rotate(-11.9112) scale(6.01723)">
<stop stop-color="white"/>
<stop offset="1" stop-color="#D2D6D5"/>
</radialGradient>
<radialGradient id="paint30_radial_0_650" cx="0" cy="0" r="1" gradientUnits="userSpaceOnUse" gradientTransform="translate(615.053 424.087) rotate(168.089) scale(6.01723)">
<stop stop-color="white"/>
<stop offset="1" stop-color="#D2D6D5"/>
</radialGradient>
<linearGradient id="paint31_linear_0_650" x1="631.356" y1="529.643" x2="636.695" y2="528.517" gradientUnits="userSpaceOnUse">
<stop stop-color="#363B39"/>
<stop offset="1"/>
</linearGradient>
<linearGradient id="paint32_linear_0_650" x1="621.217" y1="483.464" x2="626.028" y2="482.449" gradientUnits="userSpaceOnUse">
<stop stop-color="#363B39"/>
<stop offset="1"/>
</linearGradient>
<linearGradient id="paint33_linear_0_650" x1="690.361" y1="517.162" x2="685.023" y2="518.288" gradientUnits="userSpaceOnUse">
<stop stop-color="#363B39"/>
<stop offset="1"/>
</linearGradient>
<linearGradient id="paint34_linear_0_650" x1="680.989" y1="470.844" x2="676.178" y2="471.859" gradientUnits="userSpaceOnUse">
<stop stop-color="#363B39"/>
<stop offset="1"/>
</linearGradient>
<linearGradient id="paint35_linear_0_650" x1="633.19" y1="433.99" x2="648.183" y2="430.827" gradientUnits="userSpaceOnUse">
<stop stop-color="#D2DBDA"/>
<stop offset="1" stop-color="#B5B5B5"/>
</linearGradient>
<linearGradient id="paint36_linear_0_650" x1="633.535" y1="435.627" x2="648.529" y2="432.465" gradientUnits="userSpaceOnUse">
<stop stop-color="#D2DBDA"/>
<stop offset="1" stop-color="#B5B5B5"/>
</linearGradient>
<linearGradient id="paint37_linear_0_650" x1="633.881" y1="437.264" x2="648.874" y2="434.102" gradientUnits="userSpaceOnUse">
<stop stop-color="#D2DBDA"/>
<stop offset="1" stop-color="#B5B5B5"/>
</linearGradient>
<linearGradient id="paint38_linear_0_650" x1="634.228" y1="438.913" x2="649.222" y2="435.751" gradientUnits="userSpaceOnUse">
<stop stop-color="#D2DBDA"/>
<stop offset="1" stop-color="#B5B5B5"/>
</linearGradient>
<linearGradient id="paint39_linear_0_650" x1="643.569" y1="559.443" x2="690.94" y2="549.451" gradientUnits="userSpaceOnUse">
<stop stop-color="#363B39"/>
<stop offset="1" stop-color="#1B1C1C"/>
</linearGradient>
<linearGradient id="paint40_linear_0_650" x1="656.578" y1="540.535" x2="670.072" y2="554.029" gradientUnits="userSpaceOnUse">
<stop stop-color="#5E5E5E"/>
<stop offset="1"/>
</linearGradient>
<clipPath id="clip0_0_650">
<rect x="0.147217" width="1181.93" height="693" rx="24.3056" fill="white"/>
</clipPath>
</defs>
</svg>
