<svg width="121" height="121" viewBox="0 0 121 121" fill="none" xmlns="http://www.w3.org/2000/svg">
<circle cx="60.2991" cy="60.2991" r="53.5844" transform="rotate(7.72288 60.2991 60.2991)" fill="#509BBC" fill-opacity="0.11"/>
<circle cx="59.3718" cy="59.0811" r="30.8516" transform="rotate(7.72288 59.3718 59.0811)" fill="#56ACD1" fill-opacity="0.4"/>
<path style="mix-blend-mode:multiply" d="M65.7393 15.1875L54.1848 16.0336C47.7551 16.5045 42.9246 22.0984 43.3954 28.5281L47.1717 80.0958C47.6426 86.5254 53.2365 91.3559 59.6661 90.8851L71.2207 90.039C77.6503 89.5681 82.4809 83.9742 82.0101 77.5446L78.2337 25.9768C77.7629 19.5472 72.169 14.7166 65.7393 15.1875Z" fill="url(#paint0_linear_0_852)"/>
<path d="M73.4289 24.9358C72.7715 21.4727 71.9849 19.681 70.7249 18.2985C70.4823 18.3704 70.2273 18.39 69.9766 18.3559C69.7259 18.3217 69.4853 18.2348 69.2708 18.1007L64.8801 15.3615C64.6565 15.2205 64.4636 15.0359 64.3129 14.8187C64.1623 14.6015 64.057 14.3561 64.0033 14.0973L63.4084 13.9653L63.6893 17.8013L46.5758 19.0545L46.2948 15.2185L45.7277 15.4649C45.7149 15.7281 45.6488 15.9859 45.5334 16.2227C45.4179 16.4595 45.2555 16.6704 45.0561 16.8425L41.0862 20.1705C40.8954 20.3355 40.6711 20.4573 40.4288 20.5276C40.1864 20.5979 39.9318 20.6149 39.6823 20.5776C38.6313 22.1293 38.1195 24.0102 37.9678 27.5326C37.5846 36.9242 40.4644 51.3963 40.6638 54.9984C41.8318 74.2249 42.5302 85.9191 44.1003 89.8596C44.4709 90.659 45.1157 91.299 45.9179 91.6636C46.1184 91.5516 46.3419 91.4872 46.5712 91.4753C48.0556 91.3666 48.8486 92.2858 50.4754 91.8858C51.5449 91.6261 51.9773 92.4956 52.1514 93.1149C53.135 93.2009 54.121 93.2399 55.0583 93.2532C55.1271 93.1399 55.222 93.0447 55.335 92.9753C55.4479 92.906 55.5758 92.8646 55.708 92.8545L65.3649 92.1473C65.4986 92.1376 65.6327 92.1603 65.7557 92.2135C65.8788 92.2666 65.9873 92.3486 66.0719 92.4525C66.7599 92.3377 67.4758 92.2034 68.1903 92.0516C68.2491 91.4152 68.5237 90.371 69.6845 90.4791C71.3523 90.6379 72.0029 89.6129 73.4873 89.5042C73.6695 89.4828 73.8542 89.4977 74.0306 89.5481C74.2071 89.5984 74.3718 89.6832 74.5153 89.7976C75.415 89.307 76.0908 88.4882 76.402 87.5117C77.3784 83.3437 76.3687 71.7133 74.7234 52.5217C74.4354 48.9086 75.1878 34.1705 73.4289 24.9358Z" fill="url(#paint1_linear_0_852)"/>
<path d="M63.6894 17.8013L63.4085 13.9653C58.4059 12.7808 51.0715 13.3179 46.2949 15.2186L46.5758 19.0546L63.6894 17.8013Z" fill="url(#paint2_linear_0_852)"/>
<path d="M72.4121 25.5956C71.3281 19.8228 69.9168 18.9313 66.4389 16.4296C61.7143 13.0478 47.8255 14.0649 43.6499 18.0985C40.5676 21.0805 39.3071 22.1677 39.0698 28.0373C38.7179 37.0578 41.4596 51.0017 41.6725 54.4681C42.7989 72.9662 43.4777 84.2346 44.9562 88.0414C46.6644 92.4283 60.4538 91.1727 60.4538 91.1727C60.4538 91.1727 74.274 90.4182 75.3299 85.8171C76.2438 81.8351 75.2693 70.606 73.6935 52.1232C73.3933 48.6632 74.0802 34.4682 72.4121 25.5956Z" fill="url(#paint3_radial_0_852)"/>
<path d="M50.3552 46.6108C48.41 47.0198 46.5249 47.6751 44.7454 48.5608L45.0661 49.8248C46.8389 48.846 48.7474 48.1362 50.729 47.7188C55.0238 46.9595 59.3849 46.6402 63.7446 46.7657C65.7775 46.8857 67.781 47.309 69.6887 48.0216L69.8161 46.7248C67.9232 46.1055 65.9585 45.7321 63.9704 45.6138C59.4102 45.4963 54.8496 45.8303 50.3552 46.6108Z" fill="url(#paint4_linear_0_852)"/>
<path d="M43.0393 37.4903C44.9462 36.4884 46.9499 35.6828 49.0197 35.086C53.7541 33.7826 58.6982 33.4205 63.572 34.0203C65.7066 34.3093 67.8064 34.8143 69.8389 35.5278C70.2024 35.6338 70.5427 35.8074 70.842 36.0395L70.8394 36.0046C70.9115 35.6177 70.9082 35.2205 70.8298 34.8349C70.6976 34.628 70.3513 34.4544 69.7388 34.2417C67.7175 33.51 65.626 32.9885 63.4977 32.6856C58.6239 32.0858 53.6798 32.4479 48.9453 33.7513C46.8743 34.3466 44.8704 35.1542 42.9654 36.1614C42.402 36.4602 42.0731 36.6832 41.9724 36.9071C41.951 37.3001 42.0057 37.6935 42.1334 38.0658L42.1359 38.1007C42.3974 37.844 42.7035 37.6371 43.0393 37.4903Z" fill="url(#paint5_linear_0_852)"/>
<path d="M50.3552 46.6106C54.8458 45.8311 59.4025 45.4974 63.9588 45.6144C65.9411 45.7346 67.8998 46.1084 69.787 46.7267L70.8756 36.0195C70.5764 35.7873 70.2361 35.6137 69.8725 35.5077C67.84 34.7943 65.7403 34.2893 63.6057 34.0003C58.7319 33.4005 53.7878 33.7626 49.0533 35.066C46.9836 35.6628 44.9798 36.4684 43.0729 37.4703C42.7287 37.6281 42.4173 37.8494 42.1551 38.1227L44.7803 48.558C46.5489 47.6759 48.4221 47.0216 50.3552 46.6106Z" fill="url(#paint6_linear_0_852)"/>
<path d="M43.4161 65.5708L45.9221 66.388L44.5392 53.2575L41.0751 37.8391C41.0751 37.8391 41.1642 41.853 41.7878 47.5717C42.1815 51.1888 42.9077 56.1509 43.1376 59.3703C43.3551 62.4209 43.4137 64.5 43.4161 65.5708Z" fill="url(#paint7_linear_0_852)"/>
<path d="M73.5847 63.3438L71.207 64.5187L70.6632 51.3385L71.85 35.5795C71.85 35.5795 72.3466 39.5636 72.5623 45.3063C72.6998 48.9421 72.71 53.9567 72.9511 57.1694C73.1866 60.2245 73.4157 62.3145 73.5847 63.3438Z" fill="url(#paint8_linear_0_852)"/>
<path d="M43.4295 66.7927L46.0508 67.9058L47.1363 78.8928C46.9716 80.1569 46.6701 81.3995 46.2373 82.5986C45.8972 83.7841 45.4255 84.9277 44.8308 86.0081C44.8308 86.0081 43.4577 70.934 43.4295 66.7927Z" fill="url(#paint9_linear_0_852)"/>
<path d="M73.7437 64.5553L71.3161 66.0088L71.8424 77.0309C72.1934 78.2543 72.6724 79.4373 73.2713 80.5604C73.7785 81.6847 74.4119 82.7476 75.1594 83.7286C75.1594 83.7286 74.3186 68.6506 73.7437 64.5553Z" fill="url(#paint10_linear_0_852)"/>
<path d="M50.4941 91.9023C48.8673 92.3024 48.0743 91.3831 46.5899 91.4918C46.3606 91.5038 46.1371 91.5682 45.9366 91.6801C47.5195 92.5181 49.8386 92.9394 52.1701 93.1315C51.996 92.5122 51.5403 91.6443 50.4941 91.9023Z" fill="#D60D26"/>
<path d="M69.6858 90.4967C68.5075 90.3898 68.2503 91.4328 68.1916 92.0691C70.5315 91.5759 72.9071 90.8518 74.5166 89.8152C74.3731 89.7008 74.2084 89.616 74.0319 89.5656C73.8555 89.5153 73.6708 89.5004 73.4885 89.5218C72.0042 89.6305 71.3635 90.6313 69.6858 90.4967Z" fill="#D60D26"/>
<path d="M44.5688 33.364C44.5688 33.364 47.0172 28.0407 47.2595 26.0742C47.4431 24.586 46.6529 20.1084 46.6529 20.1084C46.6529 20.1084 46.6652 24.4323 46.4881 25.8497C46.1959 27.7731 44.5688 33.364 44.5688 33.364Z" fill="url(#paint11_linear_0_852)"/>
<path d="M67.7769 31.6642C67.7769 31.6642 64.5848 26.7539 64.0587 24.8437C63.6544 23.3986 63.7665 18.8549 63.7665 18.8549C63.7665 18.8549 64.39 23.134 64.7659 24.511C65.3584 26.3696 67.7769 31.6642 67.7769 31.6642Z" fill="url(#paint12_linear_0_852)"/>
<path style="mix-blend-mode:screen" d="M69.8622 35.526C67.8296 34.8126 65.7299 34.3075 63.5953 34.0186C62.4476 33.8612 61.2919 33.768 60.1338 33.7395C57.3033 37.2825 54.0985 43.545 52.7954 46.2095C56.4994 45.7218 60.2356 45.5225 63.9704 45.6135C65.9527 45.7337 67.9114 46.1076 69.7986 46.7258L70.8756 36.0194C70.5718 35.7926 70.228 35.6252 69.8622 35.526Z" fill="url(#paint13_linear_0_852)"/>
<path d="M57.2449 47.3527C48.3297 47.8008 45.4821 50.3911 45.4821 50.3911C45.4821 50.3911 48.026 83.6909 48.8644 85.7889C49.437 87.2159 55.0204 86.2628 58.6124 86.2455L61.5578 86.0298C65.1127 85.5062 70.7811 85.6353 71.1353 84.158C71.6578 81.9428 69.3305 48.6447 69.3305 48.6447C69.3305 48.6447 66.1593 46.4951 57.2449 47.3527Z" fill="url(#paint14_linear_0_852)"/>
<path d="M45.0698 17.5087C45.0698 17.5087 39.9015 20.6143 39.761 26.6874C39.6536 29.7914 39.7151 32.899 39.9453 35.9964C39.9453 35.9964 40.705 21.1173 45.0698 17.5087Z" fill="url(#paint15_linear_0_852)"/>
<path d="M64.9715 16.0513C64.9715 16.0513 70.5487 18.37 71.5599 24.3471C72.1178 27.4025 72.5116 30.4856 72.7396 33.5832C72.7396 33.5832 69.8155 18.9855 64.9715 16.0513Z" fill="url(#paint16_linear_0_852)"/>
<path d="M71.8161 36.3956C71.8161 36.3956 73.2564 36.5651 73.3438 37.7584C73.4312 38.9517 72.2119 41.4814 72.0703 39.9468C71.9028 38.7704 71.8179 37.5838 71.8161 36.3956Z" fill="url(#paint17_linear_0_852)"/>
<path d="M77.0713 38.6324C77.0158 37.8757 73.2995 37.153 73.2214 37.4455C73.0966 37.4396 72.9724 37.465 72.8598 37.5191C72.7473 37.5733 72.6499 37.6547 72.5767 37.7558C72.5034 37.857 72.4564 37.9748 72.44 38.0986C72.4236 38.2224 72.4382 38.3484 72.4826 38.4652C74.0433 38.1756 75.656 38.4745 77.0093 39.3041C77.0743 39.206 77.114 39.0933 77.1248 38.9761C77.1357 38.8589 77.1173 38.7408 77.0713 38.6324Z" fill="url(#paint18_linear_0_852)"/>
<path d="M72.3953 38.4715C72.434 38.6396 72.4931 38.8023 72.5713 38.9561C74.0436 38.625 75.5856 38.8295 76.9207 39.5329C76.9888 39.4641 77.048 39.387 77.097 39.3035C75.6853 38.4577 74.0116 38.1615 72.3953 38.4715Z" fill="url(#paint19_linear_0_852)"/>
<path d="M41.0874 38.6457C41.0874 38.6457 39.7162 39.0212 39.7687 40.217C39.8211 41.4129 41.4308 43.7353 41.3474 42.1965C41.3467 41.0082 41.2598 39.8214 41.0874 38.6457Z" fill="url(#paint20_linear_0_852)"/>
<path d="M36.2199 41.6239C36.1645 40.8672 39.7301 39.6112 39.85 39.8892C39.9726 39.8653 40.0992 39.8723 40.2184 39.9095C40.3377 39.9467 40.4458 40.013 40.533 40.1024C40.6203 40.1918 40.6839 40.3015 40.7182 40.4216C40.7525 40.5417 40.7563 40.6685 40.7294 40.7904C39.1452 40.7327 37.5957 41.263 36.3791 42.2794C36.2981 42.1933 36.2408 42.0876 36.2129 41.9727C36.185 41.8578 36.1874 41.7376 36.2199 41.6239Z" fill="url(#paint21_linear_0_852)"/>
<path d="M40.7935 40.7856C40.7766 40.9564 40.7439 41.1254 40.6958 41.2902C39.195 41.1901 37.7072 41.6245 36.496 42.5165C36.4186 42.4583 36.3488 42.3907 36.2881 42.3152C37.552 41.2709 39.1551 40.7266 40.7935 40.7856Z" fill="url(#paint22_linear_0_852)"/>
<path d="M40.6815 54.4411C40.5838 54.4498 40.4935 54.4965 40.43 54.5713C40.3665 54.646 40.3349 54.7427 40.3421 54.8405L40.5671 57.914C40.5743 58.0112 40.6197 58.1017 40.6935 58.1654C40.7673 58.2291 40.8635 58.2609 40.9607 58.2538L40.6815 54.4411Z" fill="#595959"/>
<path d="M41.6215 69.8337C41.5242 69.8408 41.4338 69.8863 41.37 69.9601C41.3063 70.0339 41.2745 70.13 41.2816 70.2273L41.5067 73.3007C41.5095 73.3494 41.5219 73.3971 41.5433 73.4409C41.5647 73.4848 41.5946 73.5239 41.6313 73.5561C41.6679 73.5883 41.7106 73.6128 41.7569 73.6283C41.8031 73.6438 41.852 73.65 41.9007 73.6464L41.6215 69.8337Z" fill="#595959"/>
<path d="M74.6641 51.9528C74.7629 51.9455 74.8606 51.9778 74.9355 52.0426C75.0105 52.1073 75.0567 52.1992 75.0639 52.298L75.289 55.3715C75.2946 55.4694 75.2616 55.5656 75.1969 55.6393C75.1322 55.713 75.0411 55.7583 74.9433 55.7655L74.6641 51.9528Z" fill="#595959"/>
<path d="M75.9766 67.318C76.0744 67.3108 76.1711 67.3424 76.2458 67.4059C76.3206 67.4694 76.3673 67.5598 76.376 67.6574L76.6011 70.7309C76.6083 70.8297 76.576 70.9273 76.5113 71.0023C76.4465 71.0773 76.3546 71.1235 76.2558 71.1307L75.9766 67.318Z" fill="#595959"/>
<path d="M48.009 31.9941C48.5877 31.9049 48.8715 31.5447 49.4677 31.4543C49.4907 31.4498 49.5114 31.4374 49.5261 31.4192C49.5408 31.401 49.5486 31.3782 49.5481 31.3547C49.5465 31.3316 49.5356 31.31 49.5181 31.2949C49.5005 31.2797 49.4776 31.2721 49.4544 31.2738C48.8762 31.3688 48.5866 31.7295 47.9962 31.8195C47.9731 31.8212 47.9516 31.832 47.9364 31.8496C47.9212 31.8672 47.9136 31.8901 47.9153 31.9132C47.9153 31.925 47.9178 31.9366 47.9227 31.9473C47.9276 31.958 47.9347 31.9675 47.9436 31.9751C47.9525 31.9828 47.963 31.9885 47.9743 31.9918C47.9856 31.9951 47.9974 31.9959 48.009 31.9941Z" fill="#9E9E9E"/>
<path d="M49.4863 31.6283C48.9076 31.7175 48.618 32.0781 48.0277 32.1682C48.0157 32.169 48.004 32.1723 47.9934 32.1779C47.9827 32.1835 47.9734 32.1911 47.9658 32.2005C47.9583 32.2098 47.9527 32.2206 47.9495 32.2322C47.9463 32.2437 47.9455 32.2558 47.9472 32.2677C47.947 32.2793 47.9494 32.2907 47.9544 32.3012C47.9593 32.3116 47.9665 32.3208 47.9755 32.3281C47.9845 32.3353 47.995 32.3404 48.0063 32.343C48.0175 32.3455 48.0292 32.3455 48.0405 32.3428C48.6192 32.2536 48.9029 31.8934 49.4991 31.8029C49.5227 31.7997 49.5441 31.7876 49.5591 31.7691C49.574 31.7506 49.5814 31.7271 49.5796 31.7034C49.5788 31.6922 49.5757 31.6813 49.5705 31.6713C49.5653 31.6614 49.5581 31.6526 49.5493 31.6455C49.5406 31.6385 49.5304 31.6333 49.5196 31.6304C49.5088 31.6274 49.4974 31.6267 49.4863 31.6283Z" fill="#9E9E9E"/>
<path d="M49.5101 31.9545C48.9315 32.0437 48.6418 32.4043 48.0515 32.4944C48.0279 32.4976 48.0065 32.5097 47.9915 32.5282C47.9766 32.5467 47.9692 32.5702 47.971 32.5939C47.9708 32.6054 47.9733 32.6169 47.9782 32.6273C47.9831 32.6378 47.9903 32.647 47.9993 32.6542C48.0083 32.6615 48.0188 32.6666 48.0301 32.6691C48.0414 32.6717 48.0531 32.6716 48.0643 32.669C48.643 32.5798 48.9268 32.2196 49.5229 32.1291C49.5465 32.1259 49.5679 32.1138 49.5829 32.0953C49.5979 32.0768 49.6052 32.0533 49.6034 32.0296C49.6026 32.0184 49.5995 32.0075 49.5943 31.9975C49.5891 31.9875 49.5819 31.9788 49.5732 31.9717C49.5644 31.9647 49.5543 31.9595 49.5434 31.9565C49.5326 31.9536 49.5213 31.9529 49.5101 31.9545Z" fill="#9E9E9E"/>
<path d="M64.1331 30.8134C63.5476 30.8095 63.2143 30.4945 62.6114 30.4918C62.588 30.4908 62.5657 30.4815 62.5484 30.4656C62.5312 30.4498 62.5202 30.4283 62.5172 30.4051C62.5155 30.3819 62.5231 30.359 62.5383 30.3414C62.5535 30.3239 62.575 30.3131 62.5981 30.3114C63.1841 30.3211 63.5231 30.6357 64.1203 30.6388C64.1434 30.6371 64.1663 30.6447 64.1839 30.6599C64.2015 30.675 64.2123 30.6966 64.214 30.7197C64.2157 30.7313 64.2149 30.7432 64.2116 30.7545C64.2084 30.7658 64.2027 30.7762 64.195 30.7851C64.1873 30.794 64.1778 30.8012 64.1671 30.806C64.1564 30.8109 64.1448 30.8134 64.1331 30.8134Z" fill="#9E9E9E"/>
<path d="M62.6242 30.6664C63.2097 30.6703 63.5487 30.9849 64.1459 30.988C64.1578 30.9871 64.1699 30.9886 64.1812 30.9926C64.1925 30.9965 64.203 31.0028 64.2118 31.0109C64.2206 31.019 64.2277 31.0289 64.2325 31.0399C64.2374 31.0509 64.2399 31.0627 64.24 31.0747C64.2419 31.0861 64.2411 31.0978 64.2378 31.1089C64.2345 31.1199 64.2287 31.1301 64.2208 31.1386C64.213 31.147 64.2033 31.1536 64.1925 31.1578C64.1817 31.1619 64.1702 31.1636 64.1587 31.1626C63.5732 31.1587 63.2399 30.8437 62.637 30.841C62.6132 30.8412 62.5902 30.8324 62.5727 30.8163C62.5552 30.8002 62.5445 30.778 62.5428 30.7542C62.542 30.743 62.5434 30.7318 62.5471 30.7212C62.5508 30.7106 62.5567 30.7008 62.5643 30.6926C62.572 30.6843 62.5812 30.6777 62.5915 30.6732C62.6018 30.6687 62.6129 30.6664 62.6242 30.6664Z" fill="#9E9E9E"/>
<path d="M62.648 30.9923C63.2335 30.9962 63.5726 31.3108 64.1697 31.3139C64.1935 31.3137 64.2165 31.3225 64.234 31.3386C64.2515 31.3547 64.2621 31.3769 64.2638 31.4007C64.2657 31.4121 64.265 31.4237 64.2616 31.4348C64.2583 31.4458 64.2525 31.456 64.2446 31.4645C64.2368 31.473 64.2271 31.4795 64.2164 31.4837C64.2056 31.4879 64.194 31.4895 64.1825 31.4885C63.597 31.4846 63.2638 31.1696 62.6608 31.1669C62.637 31.1672 62.614 31.1583 62.5965 31.1422C62.579 31.1261 62.5683 31.1039 62.5667 31.0802C62.5658 31.069 62.5673 31.0577 62.571 31.0471C62.5747 31.0365 62.5805 31.0267 62.5882 31.0185C62.5958 31.0102 62.6051 31.0037 62.6153 30.9992C62.6256 30.9946 62.6368 30.9923 62.648 30.9923Z" fill="#9E9E9E"/>
<path d="M65.3662 92.1648L55.7267 92.8707C55.5946 92.8808 55.4667 92.9222 55.3537 92.9915C55.2408 93.0609 55.1459 93.1561 55.0771 93.2694C58.1182 93.3217 60.5949 93.0994 60.5949 93.0994C60.5949 93.0994 63.0722 92.9648 66.0733 92.47C65.9886 92.366 65.8801 92.2841 65.7571 92.2309C65.634 92.1778 65.4999 92.1551 65.3662 92.1648Z" fill="url(#paint23_linear_0_852)"/>
<path d="M66.4389 16.4296C68.0573 17.5927 69.2289 18.4082 70.1246 19.5306C70.3191 19.2296 70.3762 18.4119 70.7262 18.3161C69.619 17.2363 68.4012 16.2761 67.0929 15.4512C66.1478 14.8269 65.1029 14.369 64.0033 14.0974C64.1104 14.5683 64.2754 15.024 64.4947 15.4542C65.1827 15.6929 65.8363 16.0208 66.4389 16.4296Z" fill="url(#paint24_radial_0_852)"/>
<path d="M43.6732 18.0969C42.2356 19.4838 41.2011 20.4608 40.4727 21.7021C40.2423 21.4322 40.0666 20.6316 39.7064 20.5878C40.6408 19.357 41.7039 18.2296 42.8778 17.2246C43.7192 16.4719 44.6821 15.8671 45.7255 15.436C45.6901 15.9171 45.5951 16.3918 45.4428 16.8495C44.7995 17.1838 44.2043 17.6034 43.6732 18.0969Z" fill="url(#paint25_radial_0_852)"/>
<path style="mix-blend-mode:screen" d="M46.0508 67.9059L43.4294 66.7928C43.4489 69.0561 43.8547 74.5977 44.2413 79.1575C45.3435 77.6664 46.1411 75.3724 46.5204 72.641L46.0508 67.9059Z" fill="url(#paint26_linear_0_852)"/>
<path style="mix-blend-mode:screen" d="M43.1829 60.0693C43.9301 58.7643 44.4836 57.3577 44.8259 55.8934L44.545 53.2571L41.0751 37.8391C41.0751 37.8391 41.1642 41.853 41.7878 47.5717C42.1815 51.1888 42.9077 56.1509 43.1376 59.3703C43.155 59.609 43.1658 59.8364 43.1829 60.0693Z" fill="url(#paint27_linear_0_852)"/>
<path style="mix-blend-mode:screen" d="M71.3801 66.0043L73.8135 64.5503C74.1302 66.7978 74.5177 72.3289 74.8103 76.8839C73.5027 75.5693 72.3794 73.416 71.6062 70.7689L71.3801 66.0043Z" fill="url(#paint28_linear_0_852)"/>
<path style="mix-blend-mode:screen" d="M73.0609 57.8695C72.1336 56.6869 71.3831 55.3757 70.8329 53.9771L70.7272 51.3339L71.914 35.5749C71.914 35.5749 72.4106 39.5589 72.6263 45.3017C72.7754 48.9366 72.774 53.952 73.0085 57.1535C73.0272 57.4097 73.0438 57.6367 73.0609 57.8695Z" fill="url(#paint29_linear_0_852)"/>
<path d="M58.9933 24.0794L51.2166 24.6489L51.2426 25.004L59.0193 24.4345L58.9933 24.0794Z" fill="url(#paint30_linear_0_852)"/>
<path d="M59.0555 24.9293L51.2787 25.4988L51.3047 25.8539L59.0815 25.2844L59.0555 24.9293Z" fill="url(#paint31_linear_0_852)"/>
<path d="M59.1182 25.7849L51.3415 26.3544L51.3675 26.7095L59.1442 26.14L59.1182 25.7849Z" fill="url(#paint32_linear_0_852)"/>
<path d="M59.1804 26.6348L51.4037 27.2043L51.4297 27.5594L59.2064 26.9899L59.1804 26.6348Z" fill="url(#paint33_linear_0_852)"/>
<path d="M48.7888 85.1567C48.2624 86.727 47.9878 88.3706 47.975 90.0267C47.8954 90.6178 50.443 90.9638 54.1028 91.4741C56.9086 91.9885 64.0517 91.4771 66.7517 90.5478C70.2991 89.5214 72.7022 88.8539 72.5491 88.1218C72.3364 86.5266 71.855 84.9789 71.1254 83.5444C67.6327 85.0804 63.8926 85.9767 60.0831 86.1906C56.2868 86.5021 52.4653 86.1523 48.7888 85.1567Z" fill="url(#paint34_linear_0_852)"/>
<path style="mix-blend-mode:screen" d="M71.3346 83.523C67.8486 85.0698 64.1137 85.9796 60.3069 86.2091C59.1427 86.2943 58.0557 86.3154 57.0244 86.2973C53.8326 87.3035 51.4644 90.286 50.9321 91.0097C52.0662 91.2159 53.2099 91.3646 54.359 91.4551C57.1697 91.9574 64.3053 91.4231 67.0021 90.5293C69.0228 89.9491 70.9668 89.1289 72.7924 88.0862C72.9152 88.405 72.5302 85.8641 71.3346 83.523Z" fill="url(#paint35_linear_0_852)"/>
<defs>
<linearGradient id="paint0_linear_0_852" x1="58.7996" y1="53.3192" x2="80.8668" y2="51.7032" gradientUnits="userSpaceOnUse">
<stop stop-color="#242424"/>
<stop offset="1" stop-color="white"/>
</linearGradient>
<linearGradient id="paint1_linear_0_852" x1="40.1224" y1="61.6699" x2="76.2704" y2="59.0228" gradientUnits="userSpaceOnUse">
<stop stop-color="#D1D1D1"/>
<stop offset="1" stop-color="#A8ABAA"/>
</linearGradient>
<linearGradient id="paint2_linear_0_852" x1="46.3929" y1="16.5574" x2="63.4949" y2="15.305" gradientUnits="userSpaceOnUse">
<stop stop-color="#525956"/>
<stop offset="1"/>
</linearGradient>
<radialGradient id="paint3_radial_0_852" cx="0" cy="0" r="1" gradientUnits="userSpaceOnUse" gradientTransform="translate(57.339 48.6389) rotate(-4.1883) scale(17.9065 68.7608)">
<stop offset="0.24" stop-color="white"/>
<stop offset="1" stop-color="#D2D6D5"/>
</radialGradient>
<linearGradient id="paint4_linear_0_852" x1="44.724" y1="48.2697" x2="69.7657" y2="46.4359" gradientUnits="userSpaceOnUse">
<stop/>
<stop offset="1" stop-color="#1B1C1C"/>
</linearGradient>
<linearGradient id="paint5_linear_0_852" x1="41.8312" y1="35.8582" x2="70.8254" y2="33.735" gradientUnits="userSpaceOnUse">
<stop/>
<stop offset="1" stop-color="#1B1C1C"/>
</linearGradient>
<linearGradient id="paint6_linear_0_852" x1="42.3887" y1="41.7924" x2="71.1325" y2="39.6875" gradientUnits="userSpaceOnUse">
<stop stop-color="#363B39"/>
<stop offset="1" stop-color="#1B1C1C"/>
</linearGradient>
<linearGradient id="paint7_linear_0_852" x1="42.0402" y1="52.2174" x2="44.8692" y2="52.0103" gradientUnits="userSpaceOnUse">
<stop stop-color="#363B39"/>
<stop offset="1" stop-color="#1B1C1C"/>
</linearGradient>
<linearGradient id="paint8_linear_0_852" x1="70.1666" y1="50.1517" x2="73.0014" y2="49.9442" gradientUnits="userSpaceOnUse">
<stop stop-color="#363B39"/>
<stop offset="1" stop-color="#1B1C1C"/>
</linearGradient>
<linearGradient id="paint9_linear_0_852" x1="44.0097" y1="76.3946" x2="46.9377" y2="76.1802" gradientUnits="userSpaceOnUse">
<stop stop-color="#363B39"/>
<stop offset="1" stop-color="#1B1C1C"/>
</linearGradient>
<linearGradient id="paint10_linear_0_852" x1="71.64" y1="74.3478" x2="74.568" y2="74.1334" gradientUnits="userSpaceOnUse">
<stop stop-color="#363B39"/>
<stop offset="1" stop-color="#1B1C1C"/>
</linearGradient>
<linearGradient id="paint11_linear_0_852" x1="44.9352" y1="31.5757" x2="48.0379" y2="18.6434" gradientUnits="userSpaceOnUse">
<stop stop-color="#D2DBDA"/>
<stop offset="1" stop-color="#B5B5B5"/>
</linearGradient>
<linearGradient id="paint12_linear_0_852" x1="66.8533" y1="30.7195" x2="62.7195" y2="18.2235" gradientUnits="userSpaceOnUse">
<stop stop-color="#D2DBDA"/>
<stop offset="1" stop-color="#B5B5B5"/>
</linearGradient>
<linearGradient id="paint13_linear_0_852" x1="56.4918" y1="37.8687" x2="64.9612" y2="43.0011" gradientUnits="userSpaceOnUse">
<stop stop-color="#363B39"/>
<stop offset="1"/>
</linearGradient>
<linearGradient id="paint14_linear_0_852" x1="46.7867" y1="49.9854" x2="92.457" y2="113.917" gradientUnits="userSpaceOnUse">
<stop stop-color="white"/>
<stop offset="1" stop-color="#DBDBDB"/>
</linearGradient>
<linearGradient id="paint15_linear_0_852" x1="35.6529" y1="10.8656" x2="44.9434" y2="32.4058" gradientUnits="userSpaceOnUse">
<stop stop-color="#F7F7F7"/>
<stop offset="1" stop-color="#DBDBDB"/>
</linearGradient>
<linearGradient id="paint16_linear_0_852" x1="73.326" y1="8.10678" x2="67.2667" y2="30.7711" gradientUnits="userSpaceOnUse">
<stop stop-color="#F7F7F7"/>
<stop offset="1" stop-color="#DBDBDB"/>
</linearGradient>
<linearGradient id="paint17_linear_0_852" x1="71.5317" y1="36.908" x2="75.0608" y2="42.6655" gradientUnits="userSpaceOnUse">
<stop stop-color="#363B39"/>
<stop offset="1" stop-color="#1B1C1C"/>
</linearGradient>
<linearGradient id="paint18_linear_0_852" x1="72.4304" y1="38.5509" x2="77.0813" y2="38.2103" gradientUnits="userSpaceOnUse">
<stop stop-color="white"/>
<stop offset="1" stop-color="#D2D6D5"/>
</linearGradient>
<linearGradient id="paint19_linear_0_852" x1="72.4465" y1="39.17" x2="77.1032" y2="38.829" gradientUnits="userSpaceOnUse">
<stop stop-color="#363B39"/>
<stop offset="1" stop-color="#1B1C1C"/>
</linearGradient>
<linearGradient id="paint20_linear_0_852" x1="41.4492" y1="39.1108" x2="38.7964" y2="45.3211" gradientUnits="userSpaceOnUse">
<stop stop-color="#363B39"/>
<stop offset="1" stop-color="#1B1C1C"/>
</linearGradient>
<linearGradient id="paint21_linear_0_852" x1="40.7936" y1="40.8677" x2="36.1427" y2="41.2083" gradientUnits="userSpaceOnUse">
<stop stop-color="white"/>
<stop offset="1" stop-color="#D2D6D5"/>
</linearGradient>
<linearGradient id="paint22_linear_0_852" x1="40.8679" y1="41.4824" x2="36.217" y2="41.823" gradientUnits="userSpaceOnUse">
<stop stop-color="#363B39"/>
<stop offset="1" stop-color="#1B1C1C"/>
</linearGradient>
<linearGradient id="paint23_linear_0_852" x1="55.0728" y1="93.2112" x2="66.0686" y2="92.4059" gradientUnits="userSpaceOnUse">
<stop stop-color="#363B39"/>
<stop offset="1"/>
</linearGradient>
<radialGradient id="paint24_radial_0_852" cx="0" cy="0" r="1" gradientUnits="userSpaceOnUse" gradientTransform="translate(67.413 16.7855) rotate(-4.1883) scale(3.06418)">
<stop stop-color="white"/>
<stop offset="1" stop-color="#D2D6D5"/>
</radialGradient>
<radialGradient id="paint25_radial_0_852" cx="0" cy="0" r="1" gradientUnits="userSpaceOnUse" gradientTransform="translate(42.7555 18.5913) rotate(175.812) scale(3.06418)">
<stop stop-color="white"/>
<stop offset="1" stop-color="#D2D6D5"/>
</radialGradient>
<linearGradient id="paint26_linear_0_852" x1="43.759" y1="72.9719" x2="46.5298" y2="72.769" gradientUnits="userSpaceOnUse">
<stop stop-color="#363B39"/>
<stop offset="1"/>
</linearGradient>
<linearGradient id="paint27_linear_0_852" x1="41.8028" y1="48.9752" x2="44.3" y2="48.7923" gradientUnits="userSpaceOnUse">
<stop stop-color="#363B39"/>
<stop offset="1"/>
</linearGradient>
<linearGradient id="paint28_linear_0_852" x1="74.3876" y1="70.7116" x2="71.6168" y2="70.9145" gradientUnits="userSpaceOnUse">
<stop stop-color="#363B39"/>
<stop offset="1"/>
</linearGradient>
<linearGradient id="paint29_linear_0_852" x1="72.828" y1="46.6973" x2="70.3308" y2="46.8801" gradientUnits="userSpaceOnUse">
<stop stop-color="#363B39"/>
<stop offset="1"/>
</linearGradient>
<linearGradient id="paint30_linear_0_852" x1="51.2298" y1="24.8294" x2="59.0124" y2="24.2595" gradientUnits="userSpaceOnUse">
<stop stop-color="#D2DBDA"/>
<stop offset="1" stop-color="#B5B5B5"/>
</linearGradient>
<linearGradient id="paint31_linear_0_852" x1="51.292" y1="25.6792" x2="59.0746" y2="25.1093" gradientUnits="userSpaceOnUse">
<stop stop-color="#D2DBDA"/>
<stop offset="1" stop-color="#B5B5B5"/>
</linearGradient>
<linearGradient id="paint32_linear_0_852" x1="51.3542" y1="26.5291" x2="59.1368" y2="25.9591" gradientUnits="userSpaceOnUse">
<stop stop-color="#D2DBDA"/>
<stop offset="1" stop-color="#B5B5B5"/>
</linearGradient>
<linearGradient id="paint33_linear_0_852" x1="51.4169" y1="27.3847" x2="59.1995" y2="26.8148" gradientUnits="userSpaceOnUse">
<stop stop-color="#D2DBDA"/>
<stop offset="1" stop-color="#B5B5B5"/>
</linearGradient>
<linearGradient id="paint34_linear_0_852" x1="47.8826" y1="88.8455" x2="72.4703" y2="87.045" gradientUnits="userSpaceOnUse">
<stop stop-color="#363B39"/>
<stop offset="1" stop-color="#1B1C1C"/>
</linearGradient>
<linearGradient id="paint35_linear_0_852" x1="55.7406" y1="80.1939" x2="61.6265" y2="87.9266" gradientUnits="userSpaceOnUse">
<stop stop-color="#5E5E5E"/>
<stop offset="1"/>
</linearGradient>
</defs>
</svg>
