<svg width="18" height="19" viewBox="0 0 18 19" fill="none" xmlns="http://www.w3.org/2000/svg">
<path d="M10.2974 3.13248L11.6174 5.77248C11.7974 6.13998 12.2774 6.49248 12.6824 6.55998L15.0749 6.95748C16.6049 7.21248 16.9649 8.32248 15.8624 9.41748L14.0024 11.2775C13.6874 11.5925 13.5149 12.2 13.6124 12.635L14.1449 14.9375C14.5649 16.76 13.5974 17.465 11.9849 16.5125L9.74243 15.185C9.33743 14.945 8.66993 14.945 8.25743 15.185L6.01493 16.5125C4.40993 17.465 3.43493 16.7525 3.85493 14.9375L4.38743 12.635C4.48493 12.2 4.31243 11.5925 3.99743 11.2775L2.13743 9.41748C1.04243 8.32248 1.39493 7.21248 2.92493 6.95748L5.31743 6.55998C5.71493 6.49248 6.19493 6.13998 6.37493 5.77248L7.69493 3.13248C8.41493 1.69998 9.58493 1.69998 10.2974 3.13248Z" fill="#DEA81D"/>
</svg>
