<svg width="23" height="19" viewBox="0 0 23 19" fill="none" xmlns="http://www.w3.org/2000/svg">
<path d="M22.4019 2.91976C21.7908 3.80555 21.0412 4.56065 20.1529 5.18505C20.1617 5.35251 20.1661 5.54178 20.1661 5.75287C20.1661 6.92571 19.9906 8.09997 19.6397 9.27564C19.2888 10.4513 18.7528 11.5767 18.0317 12.6517C17.3106 13.7267 16.4516 14.679 15.4547 15.5087C14.4579 16.3384 13.2596 17 11.8599 17.4934C10.4602 17.9868 8.96017 18.2335 7.35969 18.2335C4.86188 18.2335 2.56165 17.5763 0.458984 16.262C0.832182 16.3025 1.19011 16.3227 1.53277 16.3227C3.61949 16.3227 5.48326 15.6963 7.12409 14.4435C6.15114 14.4261 5.2798 14.1342 4.51005 13.5678C3.74031 13.0014 3.21058 12.2777 2.92089 11.3966C3.20723 11.4498 3.48985 11.4763 3.76873 11.4763C4.17016 11.4763 4.56517 11.4253 4.95374 11.3233C3.91543 11.1206 3.05406 10.6166 2.36963 9.81126C1.68523 9.00593 1.34303 8.07642 1.34303 7.02274V6.96844C1.98035 7.31235 2.66015 7.49528 3.38244 7.51724C2.76735 7.1176 2.27968 6.59646 1.91942 5.95382C1.55914 5.31118 1.379 4.61574 1.379 3.86748C1.379 3.07832 1.58191 2.34346 1.98772 1.6629C3.11687 3.01332 4.48507 4.09262 6.09232 4.9008C7.69959 5.70899 9.42388 6.15783 11.2652 6.24733C11.1867 5.92836 11.1473 5.59549 11.1472 5.24873C11.1472 4.03799 11.5868 3.00419 12.4661 2.14734C13.3454 1.29049 14.4062 0.862061 15.6485 0.862061C16.9492 0.862061 18.0447 1.32363 18.9352 2.24676C19.9526 2.05035 20.9052 1.69511 21.7931 1.18104C21.451 2.23015 20.7919 3.03948 19.8157 3.60901C20.7129 3.5051 21.575 3.27535 22.4019 2.91976H22.4019Z" fill="white"/>
</svg>
